<?xml version="1.0" encoding="UTF-8" standalone="no"?>
<!DOCTYPE svg PUBLIC "-//W3C//DTD SVG 1.1//EN" "http://www.w3.org/Graphics/SVG/1.1/DTD/svg11.dtd" >
<svg xmlns="http://www.w3.org/2000/svg">
<metadata>
Generated by SVGconv.
Copyright   : Copyright (c) 2013 by Total Identity. All rights reserved.
Designer    : Felix Janssens, Aad van Dommelen, Gerben Dollen
Foundry     : ParaType Ltd
Foundry URL : www.lg.com
</metadata>
<defs>
<font id="LGSmartWeb-BoldItalic" horiz-adv-x="473" >
<font-face units-per-em="1000" ascent="894" descent="306" >
<font-face-src>
<font-face-name/>
</font-face-src>
</font-face>
<missing-glyph horiz-adv-x="503" />
<glyph unicode="&#13;" horiz-adv-x="200" />
<glyph unicode="&#32;" horiz-adv-x="216" />
<glyph unicode="&#8364;" horiz-adv-x="559" d="M71 397h51q34 105 114.5 163q80.5 58 209.5 58q42 0 88 -12q46 -12 78 -38l-57 -99q-16 23 -47 37q-31 14 -73 14q-68 0 -111 -35q-43 -35 -66 -88l260 0l-40 -68h-241q-3 -15 -5 -30q-2 -15 -3 -30l213 0l-39 -68h-173q8 -53 41 -80q33 -27 86 -27q79 0 139 25l-24 -107q-72 -22 -147 -22q-54 0 -95 15.5q-41 15.5 -69 43.5q-28 28 -43.5 66.5q-15.5 38.5 -18.5 85.5l-94 0l38 68h56q2 32 6 60l-73 0z" />
<glyph unicode="&#163;" horiz-adv-x="451" d="M393 618q65 0 111 -20l-52 -86q-17 9 -32 12.5q-15 3.5 -35 3.5q-32 0 -53 -8q-21 -8 -34.5 -24q-13.5 -16 -21.5 -39.5q-8 -23.5 -14 -54.5l-14 -66h165l-19 -90h-165l-2 -9q-12 -53 -30 -86q-18 -33 -58 -53l252 0l-21 -98h-381l18 83q43 29 64 64.5q21 35.5 31 87.5l2 11h-61l19 90h61l20 94q12 55 35 91.5q23 36.5 55.5 58q32.5 21.5 73 30t86.5 8.5z" />
<glyph unicode="&#402;" horiz-adv-x="421" d="M199 -43q-10 -48 -30.5 -80.5q-20.5 -32.5 -49 -52.5q-28.5 -20 -63.5 -28.5q-35 -8.5 -74 -8.5q-17 0 -33.5 2q-16.5 2 -31.5 4l30 88q9 -2 17 -3.5q8 -1.5 19 -1.5q42 0 63 18q21 18 29 56l68 315h-72l18 86h72l20 96q10 48 30.5 81q20.5 33 49 53q28.5 20 63.5 28.5q35 8.5 74 8.5q28 0 54 -4q26 -4 45 -13l-43 -85q-13 8 -27 10.5q-14 2.5 -30 2.5q-42 0 -63 -18q-21 -18 -29 -57l-22 -103h124l-18 -86l-124 0z" />
<glyph unicode="&#162;" horiz-adv-x="418" d="M337 27q-26 -16 -62 -27q-22 -5 -49 -8l-16 -77h-67l16 76q-29 3 -51 11q-32 12 -53 34.5q-21 22.5 -31 54.5q-10 32 -10 71q0 63 19 113.5q19 50.5 53.5 85.5q34.5 35 81.5 53q39 15 85 18l16 76h67l-17 -79q20 -3 39 -9q41 -12 61 -33l-73 -70q-17 21 -45 29l-57 -273q20 3 39 8q28 9 54 21zM211 338q-23 -12 -39.5 -35q-16.5 -23 -26 -55q-9.5 -32 -9.5 -71q0 -49 21 -77q9 -11 21 -18l57 265q-12 -3 -24 -9z" />
<glyph unicode="&#99;" horiz-adv-x="405" d="M345 27q-26 -16 -62 -26.5q-36 -10.5 -88 -10.5q-46 0 -78.5 12q-32.5 12 -53.5 34.5q-21 22.5 -31 54.5q-10 32 -10 71q0 63 19 113.5q19 50.5 53.5 85.5q34.5 35 82 53.5q47.5 18.5 104.5 18.5q44 0 85 -12.5q41 -12.5 61 -33.5l-73 -70q-27 34 -83 34q-28 0 -51.5 -12.5q-23.5 -12.5 -40 -35.5q-16.5 -23 -26 -55q-9.5 -32 -9.5 -71q0 -49 21.5 -76.5q21.5 -27.5 66.5 -27.5q31 0 59 8.5q28 8.5 54 20.5z" />
<glyph unicode="&#165;" horiz-adv-x="544" d="M329 159l-33 -159h-124l38 159h-167l14 68h170l7 29l-12 25h-153l14 67h111q-28 66 -55 135.5q-27 69.5 -53 124.5l132 0l87 -242h8l183 242h131l-206 -260h102l-14 -67h-141l-19 -25l-6 -29h154l-14 -68z" />
<glyph unicode="&#8361;" horiz-adv-x="862" d="M61 395h81l1 213h120l-7 -213h110l79 213h152l-10 -213h111l83 213h113l-88 -213h79l-14 -68h-93l-22 -52h104l-15 -68h-117l-85 -207h-160l8 207h-113l-79 -207h-160l1 207h-119l14 68h106v52h-94zM404 275h89l2 52h-71zM582 275h69l20 52h-87zM252 275h69l20 52h-87zM450 395h48l5 117h-8zM582 97l43 110h-46l-5 -110zM255 97l41 110h-46l-3 -110z" />
<glyph unicode="&#64;" horiz-adv-x="934" d="M521 433q19 0 40 -1.5q21 -1.5 41.5 -5q20.5 -3.5 39.5 -9q19 -5.5 33 -12.5l-46 -232q-2 -8 -3 -17.5q-1 -9.5 -1 -17.5q0 -19 9.5 -34q9.5 -15 32.5 -15q31 0 54 15q23 15 38 41q15 26 22.5 61.5q7.5 35.5 7.5 77.5q0 70 -16.5 116.5q-16.5 46.5 -49.5 74q-33 27.5 -82.5 39q-49.5 11.5 -116.5 11.5q-181 0 -277 -99.5q-96 -99.5 -96 -293.5q0 -70 16.5 -117.5q16.5 -47.5 49 -77q32.5 -29.5 79 -42.5q46.5 -13 106.5 -13q47 0 85.5 5.5q38.5 5.5 85.5 18.5l26 -88q-45 -14 -94.5 -22.5q-49.5 -8.5 -104.5 -8.5q-174 0 -268.5 83q-94.5 83 -94.5 262q0 120 35 211q35 91 99.5 152q64.5 61 155.5 92q91 31 203 31q90 0 159.5 -18.5q69.5 -18.5 117 -58.5q47.5 -40 72 -104q24.5 -64 24.5 -155q0 -58 -15 -110q-15 -52 -45.5 -91.5q-30.5 -39.5 -76.5 -62.5q-46 -23 -108 -23q-42 0 -73 15q-31 15 -49 46q-26 -29 -63 -47.5q-37 -18.5 -91 -18.5q-74 0 -109.5 43.5q-35.5 43.5 -35.5 114.5q0 141 73 213q73 72 211 72zt0 0zM413 77q24 0 47.5 13q23.5 13 42.5 42l46 216q-8 2 -15.5 2q-7.5 0 -15.5 0q-84 0 -121.5 -50q-37.5 -50 -37.5 -138q0 -44 15.5 -64.5t38.5 -20.5z" />
<glyph unicode="&#35;" horiz-adv-x="487" d="M448 287h-66l-18 -83h66l-17 -82h-66l-12 -57h-86l12 57h-70l-12 -57h-86l12 57h-65l17 82h65l18 83h-65l17 82h66l12 57h86l-12 -57h70l12 57h86l-12 -57h65zM208 204h70l18 83l-70 0z" />
<glyph unicode="&#94;" horiz-adv-x="417" d="M381 608l34 -323h-103l-28 240h-8l-128 -240h-110l172 323z" />
<glyph unicode="&#38;" horiz-adv-x="556" d="M7 134q0 71 38.5 118q38.5 47 123.5 82q-12 26 -20.5 54q-8.5 28 -8.5 54q0 80 52.5 128q52.5 48 147.5 48q35 0 63.5 -10.5q28.5 -10.5 49 -28.5q20.5 -18 32 -42q11.5 -24 11.5 -51q0 -38 -14.5 -66.5q-14.5 -28.5 -38.5 -51q-24 -22.5 -56 -39.5q-32 -17 -67 -31l62 -98q25 32 44.5 65.5q19.5 33.5 33.5 65.5l99 -25q-32 -55 -62.5 -102q-30.5 -47 -62.5 -85l76 -119h-130l-28 43q-38 -26 -81.5 -39.5q-43.5 -13.5 -97.5 -13.5q-36 0 -66.5 10.5q-30.5 10.5 -52.5 29q-22 18.5 -34.5 45q-12.5 26.5 -12.5 59.5zt0 0zM204 89q50 0 97 33l-86 134q-40 -20 -61 -43.5q-21 -23.5 -21 -55.5q0 -32 20.5 -50q20.5 -18 50.5 -18zt0 0zM253 445q0 -18 6 -36.5q6 -18.5 15 -36.5q23 8 42.5 16.5q19.5 8.5 34 20.5q14.5 12 22.5 28q8 16 8 38q0 21 -16 35q-16 14 -36 14q-35 0 -55.5 -21t-20.5 -58z" />
<glyph unicode="&#42;" horiz-adv-x="420" d="M311 479l126 59l11 -123l-131 -20l77 -96l-122 -71l-33 114l-81 -114l-92 71l115 96l-119 20l63 123l100 -59l7 128l127 0z" />
<glyph unicode="&#164;" horiz-adv-x="445" d="M281 108q-38 -16 -78 -16q-42 0 -76 23l-82 -70l-54 73l83 71q-4 13 -4 33q0 34 11.5 64.5q11.5 30.5 32.5 55.5l-56 71l80 68l61 -78q20 8 40.5 12q20.5 4 42.5 4q27 0 51 -13l80 67l61 -77l-81 -67q6 -21 6 -41q0 -31 -9 -59q-9 -28 -26 -52l50 -63l-85 -68zM218 186q32 0 54.5 24q22.5 24 22.5 60q0 24 -12 39q-12 15 -32 15q-31 0 -54 -23.5q-23 -23.5 -23 -60.5q0 -26 12 -40t32 -14z" />
<glyph unicode="&#215;" horiz-adv-x="520" d="M357 39l-102 134l-165 -139l-60 76l166 140l-104 136l83 66l102 -134l165 139l60 -76l-166 -140l104 -136z" />
<glyph unicode="&#182;" horiz-adv-x="557" d="M259 204h-50q-42 0 -70 10.5q-28 10.5 -45 28.5q-17 18 -24.5 43q-7.5 25 -7.5 54q0 73 17.5 124q17.5 51 50.5 83q33 32 80 46.5q47 14.5 105 14.5h266l-172 -807l-76 -6l157 741h-79l-156 -735l-83 -6z" />
<glyph unicode="&#167;" horiz-adv-x="473" d="M445 233q0 -60 -31 -99q-31 -39 -88 -58q22 -20 36 -50q14 -30 14 -66q0 -78 -61 -125.5q-61 -47.5 -173 -47.5q-91 0 -171 38l47 83q29 -14 62.5 -21.5q33.5 -7.5 63.5 -7.5q65 0 91.5 20.5q26.5 20.5 26.5 48.5q0 20 -12.5 32q-12.5 12 -19.5 15q-29 15 -59.5 27.5q-30.5 12.5 -62.5 28.5q-38 18 -59.5 48.5q-21.5 30.5 -21.5 72.5q0 59 28 101q28 42 85 64q-22 20 -33.5 48q-11.5 28 -11.5 60q0 78 58 125.5q58 47.5 174 47.5q42 0 83 -8q41 -8 76 -26l-44 -81q-23 11 -52.5 18.5q-29.5 7.5 -67.5 7.5q-60 0 -85 -19.5q-25 -19.5 -25 -48.5q0 -22 14 -34.5q14 -12.5 27 -18.5q24 -11 56 -24.5q32 -13.5 61 -29.5q30 -16 52.5 -46q22.5 -30 22.5 -75zt0 0zM298 258q-19 10 -38.5 18q-19.5 8 -39.5 16q-41 -9 -58 -34q-17 -25 -17 -49q0 -25 11 -39.5q11 -14.5 30 -23.5q14 -8 31 -15q17 -7 35 -15q42 11 59.5 36q17.5 25 17.5 48q0 24 -9 37.5t-22 20.5z" />
<glyph unicode="&#8224;" horiz-adv-x="518" d="M263 401l12 207h140l-77 -207l200 30l-28 -133l-187 30l-12 -208l-118 -325h-43l21 325l77 208l-201 -30l28 133z" />
<glyph unicode="&#8225;" horiz-adv-x="518" d="M337 401l201 30l-28 -133l-188 30l-6 -127l-47 -126l200 30l-29 -133l-187 31l-11 -208h-140l76 208l-201 -31l29 133l187 -29l6 125l47 127l-199 -30l28 133l187 -30l13 207l140 0z" />
<glyph unicode="&#60;" horiz-adv-x="520" d="M285 -11l-195 256l304 256l63 -70l-227 -192l139 -184z" />
<glyph unicode="&#61;" horiz-adv-x="520" d="M73 272l20 95h400l-20 -95zM41 123l20 95h400l-20 -95z" />
<glyph unicode="&#62;" horiz-adv-x="520" d="M245 501l195 -256l-304 -256l-63 70l227 192l-139 184z" />
<glyph unicode="&#43;" horiz-adv-x="520" d="M80 293h145l32 151h103l-33 -151h147l-20 -97h-147l-32 -150h-102l31 150l-145 0z" />
<glyph unicode="&#8722;" horiz-adv-x="520" d="M456 197h-400l20 96l400 0z" />
<glyph unicode="&#37;" horiz-adv-x="619" d="M227 499q0 25 -7 39q-7 14 -23 14q-12 0 -25 -7.5q-13 -7.5 -23.5 -24q-10.5 -16.5 -17.5 -43q-7 -26.5 -7 -64.5q0 -26 7.5 -40q7.5 -14 24.5 -14q12 0 24.5 7q12.5 7 23 23.5q10.5 16.5 17 43.5q6.5 27 6.5 66zt0 0zM467 57q12 0 24.5 7q12.5 7 23 23.5q10.5 16.5 17 43.5q6.5 27 6.5 66q0 24 -7 38.5q-7 14.5 -23 14.5q-12 0 -25 -7.5q-13 -7.5 -23.5 -24q-10.5 -16.5 -17.5 -43q-7 -26.5 -7 -65.5q0 -25 7.5 -39q7.5 -14 24.5 -14zt0 0zM95 -30h-105l572 668h105zM621 197q0 -42 -10.5 -79.5q-10.5 -37.5 -31.5 -66q-21 -28.5 -52 -45q-31 -16.5 -73 -16.5q-53 0 -77.5 32.5q-24.5 32.5 -24.5 84.5q0 40 9.5 77.5q9.5 37.5 30 67q20.5 29.5 52.5 47q32 17.5 77 17.5q51 0 75.5 -33q24.5 -33 24.5 -86zt0 0zM143 292q-53 0 -77.5 33q-24.5 33 -24.5 84q0 40 9.5 78q9.5 38 30 67q20.5 29 52.5 46.5q32 17.5 77 17.5q51 0 75.5 -32.5q24.5 -32.5 24.5 -85.5q0 -42 -10.5 -79.5q-10.5 -37.5 -31.5 -66q-21 -28.5 -52 -45.5t-73 -17z" />
<glyph unicode="&#247;" horiz-adv-x="520" d="M184 143h121l-24 -113h-121zM349 347h-122l25 114h121zM82 293h388l-20 -96l-388 0z" />
<glyph unicode="&#176;" horiz-adv-x="317" d="M200 335q-67 2 -102.5 36.5q-35.5 34.5 -35.5 86.5q0 78 44.5 119q44.5 41 128.5 41q66 0 102.5 -36q36.5 -36 36.5 -88q0 -77 -45 -117.5q-45 -40.5 -129 -41.5zt0 0zM210 418q38 0 54 17q16 17 16 47q0 23 -14 38.5q-14 15.5 -41 15.5q-37 0 -52.5 -19.5q-15.5 -19.5 -15.5 -45.5q0 -25 12.5 -39t40.5 -14z" />
<glyph unicode="&#126;" horiz-adv-x="431" d="M24 254q28 23 66.5 38q38.5 15 79.5 15q22 0 38.5 -4.5q16.5 -4.5 30.5 -10q14 -5.5 28.5 -10q14.5 -4.5 32.5 -4.5q23 0 46 8.5q23 8.5 44 19.5l34 -69q-29 -23 -67.5 -38.5q-38.5 -15.5 -80.5 -15.5q-22 0 -38 5q-16 5 -30 10.5q-14 5.5 -28 10.5q-14 5 -32 5q-24 0 -47.5 -8.5q-23.5 -8.5 -44.5 -21.5z" />
<glyph unicode="&#95;" horiz-adv-x="383" d="M-23 -40h326l-18 -82l-325 0z" />
<glyph unicode="&#45;" horiz-adv-x="328" d="M278 165h-244l22 103l244 0z" />
<glyph unicode="&#8211;" horiz-adv-x="486" d="M437 177h-399l20 96l399 0z" />
<glyph unicode="&#8212;" horiz-adv-x="736" d="M736 177h-747l20 96l747 0z" />
<glyph unicode="&#91;" horiz-adv-x="315" d="M199 -184h-249l173 815h249l-20 -97h-127l-132 -623l126 0z" />
<glyph unicode="&#40;" horiz-adv-x="328" d="M44 147q0 163 72 292q72 129 213 229l52 -69q-107 -80 -165.5 -199.5q-58.5 -119.5 -58.5 -257.5q0 -71 16 -139q16 -68 54 -134l-75 -53q-55 71 -81.5 154.5t-26.5 176.5z" />
<glyph unicode="&#123;" horiz-adv-x="329" d="M158 -171q-62 0 -96.5 31.5q-34.5 31.5 -34.5 84.5q0 8 1 18.5q1 10.5 3 17.5l27 130q1 4 2 11.5q1 7.5 1 12.5q0 27 -12.5 40.5q-12.5 13.5 -38.5 18.5l21 100q29 4 52 23q23 19 32 60l33 156q14 65 62 99q48 34 132 34h65l-20 -97h-13q-51 0 -76.5 -17q-25.5 -17 -35.5 -62l-29 -137q-11 -50 -34 -73q-23 -23 -63 -30l-2 -9q28 -8 43 -23q15 -15 15 -45q0 -13 -5 -36l-29 -138q-3 -14 -3 -25q0 -29 20 -39q20 -10 62 -10h13l-21 -96z" />
<glyph unicode="&#171;" horiz-adv-x="488" d="M332 30l-116 181l194 182l66 -63l-130 -123l76 -115zM16 211l187 182l67 -63l-125 -123l69 -115l-89 -62z" />
<glyph unicode="&#8249;" horiz-adv-x="281" d="M16 211l187 182l67 -63l-120 -118l69 -115l-94 -67z" />
<glyph unicode="&#47;" horiz-adv-x="350" d="M328 638h116l-379 -668l-116 0z" />
<glyph unicode="&#124;" horiz-adv-x="208" d="M67 -173h-93l178 837l93 0z" />
<glyph unicode="&#166;" horiz-adv-x="208" d="M179 335h-93l70 329h93zM71 -173h-93l70 329l93 0z" />
<glyph unicode="&#92;" horiz-adv-x="350" d="M302 -30h-116l-95 668l116 0z" />
<glyph unicode="&#8250;" horiz-adv-x="281" d="M271 212l-187 -182l-67 63l120 118l-69 115l94 67z" />
<glyph unicode="&#187;" horiz-adv-x="488" d="M148 393l116 -181l-194 -182l-66 63l130 123l-76 115zM464 212l-187 -182l-67 63l125 123l-69 115l89 62z" />
<glyph unicode="&#125;" horiz-adv-x="330" d="M190 666q62 0 96.5 -31q34.5 -31 34.5 -84q0 -19 -4 -36l-27 -131q-3 -14 -3 -24q0 -27 14 -41.5q14 -14.5 37 -17.5l-21 -100q-29 -4 -52 -23q-23 -19 -32 -60l-33 -156q-14 -64 -62 -98.5q-48 -34.5 -132 -34.5h-65l20 97h13q51 0 76.5 17q25.5 17 35.5 62l29 137q11 50 34 73q23 23 63 30l2 9q-28 8 -42.5 23q-14.5 15 -14.5 45q0 17 4 36l29 138q3 13 3 25q0 29 -20 39q-20 10 -62 10h-13l21 96z" />
<glyph unicode="&#41;" horiz-adv-x="327" d="M299 337q0 -163 -72 -292q-72 -129 -213 -229l-52 69q107 80 165.5 199.5q58.5 119.5 58.5 257.5q0 71 -16 138.5q-16 67.5 -54 134.5l75 53q55 -71 81.5 -154.5t26.5 -176.5z" />
<glyph unicode="&#93;" horiz-adv-x="315" d="M-28 -89h127l133 623h-127l20 97h249l-173 -815l-249 0z" />
<glyph unicode="&#46;" horiz-adv-x="236" d="M130 0h-122l24 115l123 0z" />
<glyph unicode="&#44;" horiz-adv-x="236" d="M-48 -101q24 28 39 54q15 26 25.5 51.5q10.5 25.5 17 52q6.5 26.5 12.5 56.5l110 0q-10 -46 -23 -82.5q-13 -36.5 -30.5 -67.5q-17.5 -31 -39.5 -58q-22 -27 -49 -54z" />
<glyph unicode="&#33;" horiz-adv-x="245" d="M164 175h-97l72 433h138zM42 115h123l-25 -115l-122 0z" />
<glyph unicode="&#63;" horiz-adv-x="413" d="M188 0h-122l24 115h123zM108 176l12 58q10 50 39.5 83.5q29.5 33.5 61 59q31.5 25.5 56 46.5q24.5 21 24.5 47q0 28 -22.5 39q-22.5 11 -51.5 11q-32 0 -62.5 -7.5q-30.5 -7.5 -54.5 -19.5l-12 88q37 17 80 27q43 10 91 10q34 0 65 -8q31 -8 54.5 -23.5q23.5 -15.5 37.5 -38.5q14 -23 14 -54q0 -33 -14 -58.5q-14 -25.5 -36 -47q-22 -21.5 -48 -41q-26 -19.5 -49.5 -40q-23.5 -20.5 -42 -44q-18.5 -23.5 -24.5 -53.5l-7 -34z" />
<glyph unicode="&#161;" horiz-adv-x="252" d="M210 308h-122l24 115h122zM87 248h97l-71 -433l-138 0z" />
<glyph unicode="&#191;" horiz-adv-x="413" d="M225 423h122l-24 -115h-123zM305 247l-12 -58q-10 -50 -39.5 -83.5q-29.5 -33.5 -61 -59q-31.5 -25.5 -56 -46.5q-24.5 -21 -24.5 -47q0 -28 22.5 -39q22.5 -11 51.5 -11q32 0 62.5 7.5q30.5 7.5 54.5 19.5l12 -88q-37 -17 -80 -27q-43 -10 -91 -10q-34 0 -65 8q-31 8 -54.5 23.5q-23.5 15.5 -37.5 38.5q-14 23 -14 54q0 33 14 58.5q14 25.5 36 47q22 21.5 48 41q26 19.5 49.5 40q23.5 20.5 42 44q18.5 23.5 24.5 53.5l7 34z" />
<glyph unicode="&#58;" horiz-adv-x="236" d="M194 308h-122l24 115h123zM130 0h-122l24 115l123 0z" />
<glyph unicode="&#59;" horiz-adv-x="236" d="M-43 -101q24 28 39 54q15 26 25.5 51.5q10.5 25.5 17 52q6.5 26.5 12.5 56.5l110 0q-10 -46 -23 -82.5q-13 -36.5 -30.5 -67.5q-17.5 -31 -39.5 -58q-22 -27 -49 -54zM200 308h-122l24 115l123 0z" />
<glyph unicode="&#8230;" horiz-adv-x="679" d="M37 115h123l-25 -115h-122zM260 115h123l-25 -115h-122zM483 115h123l-25 -115l-122 0z" />
<glyph unicode="&#183;" horiz-adv-x="236" d="M175 187h-122l24 115l123 0z" />
<glyph unicode="&#39;" horiz-adv-x="258" d="M116 380l40 254h113l-69 -254z" />
<glyph unicode="&#34;" horiz-adv-x="438" d="M116 380l40 254h113l-69 -254zM296 380l40 254h113l-69 -254z" />
<glyph unicode="&#8220;" horiz-adv-x="426" d="M290 594q-24 -28 -39 -54q-15 -26 -25.5 -51.5q-10.5 -25.5 -17 -52q-6.5 -26.5 -12.5 -56.5l-110 0q10 46 23 82.5q13 36.5 30.5 67.5q17.5 31 39.5 58q22 27 49 54zM475 594q-24 -28 -39 -54q-15 -26 -25.5 -51.5q-10.5 -25.5 -17 -52q-6.5 -26.5 -12.5 -56.5l-110 0q10 46 23 82.5q13 36.5 30.5 67.5q17.5 31 39.5 58q22 27 49 54z" />
<glyph unicode="&#8221;" horiz-adv-x="426" d="M69 420q24 28 39 54q15 26 25.5 51.5q10.5 25.5 17 52q6.5 26.5 12.5 56.5l110 0q-10 -46 -23 -82.5q-13 -36.5 -30.5 -67.5q-17.5 -31 -39.5 -58q-22 -27 -49 -54zM253 420q24 28 39 54q15 26 25.5 51.5q10.5 25.5 17 52q6.5 26.5 12.5 56.5l110 0q-10 -46 -23 -82.5q-13 -36.5 -30.5 -67.5q-17.5 -31 -39.5 -58q-22 -27 -49 -54z" />
<glyph unicode="&#8216;" horiz-adv-x="241" d="M290 594q-24 -28 -39 -54q-15 -26 -25.5 -51.5q-10.5 -25.5 -17 -52q-6.5 -26.5 -12.5 -56.5l-110 0q10 46 23 82.5q13 36.5 30.5 67.5q17.5 31 39.5 58q22 27 49 54z" />
<glyph unicode="&#8217;" horiz-adv-x="242" d="M69 420q24 28 39 54q15 26 25.5 51.5q10.5 25.5 17 52q6.5 26.5 12.5 56.5l110 0q-10 -46 -23 -82.5q-13 -36.5 -30.5 -67.5q-17.5 -31 -39.5 -58q-22 -27 -49 -54z" />
<glyph unicode="&#8218;" horiz-adv-x="236" d="M-48 -101q24 28 39 54q15 26 25.5 51.5q10.5 25.5 17 52q6.5 26.5 12.5 56.5l110 0q-10 -46 -23 -82.5q-13 -36.5 -30.5 -67.5q-17.5 -31 -39.5 -58q-22 -27 -49 -54z" />
<glyph unicode="&#8222;" horiz-adv-x="426" d="M-32 -101q24 28 39 54q15 26 25.5 51.5q10.5 25.5 17 52q6.5 26.5 12.5 56.5l110 0q-10 -46 -23 -82.5q-13 -36.5 -30.5 -67.5q-17.5 -31 -39.5 -58q-22 -27 -49 -54zM152 -101q24 28 39 54q15 26 25.5 51.5q10.5 25.5 17 52q6.5 26.5 12.5 56.5l110 0q-10 -46 -23 -82.5q-13 -36.5 -30.5 -67.5q-17.5 -31 -39.5 -58q-22 -27 -49 -54z" />
<glyph unicode="&#8226;" horiz-adv-x="300" d="M30 216q0 23 10 46q10 23 27.5 42q17.5 19 41.5 30.5q24 11.5 53 11.5q41 0 64 -25q23 -25 23 -63q0 -24 -10.5 -47q-10.5 -23 -28.5 -41.5q-18 -18.5 -42.5 -29.5q-24.5 -11 -51.5 -11q-38 0 -62 23.5t-24 63.5z" />
<glyph unicode="&#48;" horiz-adv-x="520" d="M230 82q31 0 55.5 16.5q24.5 16.5 43 44q18.5 27.5 31 62q12.5 34.5 21 70.5q8.5 36 12 70.5q3.5 34.5 3.5 60.5q0 19 -3 39.5q-3 20.5 -11.5 38q-8.5 17.5 -23.5 29q-15 11.5 -39 11.5q-31 0 -55.5 -16.5q-24.5 -16.5 -43 -44q-18.5 -27.5 -31 -62q-12.5 -34.5 -21 -70.5q-8.5 -36 -12 -70.5q-3.5 -34.5 -3.5 -60.5q0 -19 3 -39.5q3 -20.5 11.5 -38q8.5 -17.5 23.5 -29q15 -11.5 39 -11.5zt0 0zM214 -11q-37 0 -69 12q-32 12 -56 37.5q-24 25.5 -38 64q-14 38.5 -14 91.5q0 43 6.5 91q6.5 48 21 95q14.5 47 37.5 90q23 43 56 75.5q33 32.5 77.5 52q44.5 19.5 100.5 19.5q37 0 69 -12q32 -12 56 -37.5q24 -25.5 38 -64q14 -38.5 14 -91.5q0 -43 -6.5 -91q-6.5 -48 -21 -95q-14.5 -47 -37.5 -90q-23 -43 -56 -75.5q-33 -32.5 -77.5 -52t-100.5 -19.5z" />
<glyph unicode="&#49;" horiz-adv-x="520" d="M293 491l-133 -58l-30 74l228 101h84l-130 -608l-124 0z" />
<glyph unicode="&#50;" horiz-adv-x="520" d="M-1 0l14 65l269 225q48 40 75 73q27 33 27 76q0 22 -9 38q-9 16 -22.5 26q-13.5 10 -30 15q-16.5 5 -31.5 5q-49 0 -88 -12q-39 -12 -70 -32l-25 82q47 26 102 41.5q55 15.5 123 15.5q40 0 74.5 -9q34.5 -9 59.5 -27.5q25 -18.5 39 -46.5q14 -28 14 -66q0 -39 -13.5 -71.5q-13.5 -32.5 -36 -61q-22.5 -28.5 -51 -54q-28.5 -25.5 -58.5 -50.5l-166 -136h265l-20 -96z" />
<glyph unicode="&#51;" horiz-adv-x="520" d="M387 327q42 -15 68 -45.5q26 -30.5 26 -76.5q0 -54 -21 -94.5q-21 -40.5 -58.5 -67q-37.5 -26.5 -89 -40q-51.5 -13.5 -111.5 -13.5q-69 0 -122 19.5q-53 19.5 -84 54.5l68 72q23 -22 63 -36.5q40 -14.5 85 -14.5q30 0 55 6q25 6 44 18q19 12 29.5 30.5q10.5 18.5 10.5 43.5q0 38 -33 62.5q-33 24.5 -96 24.5q-13 0 -27.5 -1.5q-14.5 -1.5 -29.5 -3.5l19 97h42q22 0 49.5 3.5q27.5 3.5 51.5 13.5q24 10 40 28.5q16 18.5 16 48.5q0 34 -27.5 49.5q-27.5 15.5 -64.5 15.5q-42 0 -76 -11q-34 -11 -59 -27l-38 78q35 23 88 40q53 17 116 17q41 0 76.5 -9q35.5 -9 62 -26.5q26.5 -17.5 42 -44q15.5 -26.5 15.5 -61.5q0 -30 -11 -55q-11 -25 -29 -43.5q-18 -18.5 -41.5 -31.5t-48.5 -20z" />
<glyph unicode="&#52;" horiz-adv-x="520" d="M425 216h78l-19 -90h-78l-27 -126h-124l27 126h-279l15 69l301 413h189zM364 512h-8l-208 -296l153 0z" />
<glyph unicode="&#53;" horiz-adv-x="520" d="M85 137q20 -21 55.5 -35.5q35.5 -14.5 77.5 -14.5q61 0 97 28q36 28 36 85q0 26 -11 44.5q-11 18.5 -30 30q-19 11.5 -45.5 17q-26.5 5.5 -57.5 5.5h-113l70 311h357l-19 -92h-236l-28 -129h16q48 0 89.5 -9.5q41.5 -9.5 72 -29.5q30.5 -20 48.5 -51.5q18 -31.5 18 -75.5q0 -58 -19 -101.5q-19 -43.5 -54.5 -72q-35.5 -28.5 -85.5 -43q-50 -14.5 -112 -14.5q-66 0 -120 21q-54 21 -81 56z" />
<glyph unicode="&#54;" horiz-adv-x="520" d="M498 505q-20 9 -47 13.5q-27 4.5 -53 4.5q-40 0 -73 -12q-33 -12 -58.5 -33.5q-25.5 -21.5 -44.5 -51.5q-19 -30 -32 -65q29 15 62.5 23q33.5 8 62.5 8q42 0 73.5 -11.5q31.5 -11.5 53 -32q21.5 -20.5 32.5 -49q11 -28.5 11 -62.5q0 -54 -19 -99.5q-19 -45.5 -54 -78.5q-35 -33 -83.5 -51.5q-48.5 -18.5 -107.5 -18.5q-89 0 -136 48.5q-47 48.5 -47 138.5q0 80 22 158.5q22 78.5 67 141.5q45 63 115 102q70 39 166 39q41 0 74.5 -7q33.5 -7 60.5 -19zM282 295q-28 0 -57.5 -7.5q-29.5 -7.5 -57.5 -24.5q-6 -42 -6 -85q0 -20 4 -38q4 -18 13 -31.5q9 -13.5 24 -21.5q15 -8 36 -8q28 0 51.5 11q23.5 11 40.5 30.5q17 19.5 26.5 45q9.5 25.5 9.5 53.5q0 35 -22 55.5t-62 20.5z" />
<glyph unicode="&#57;" horiz-adv-x="520" d="M54 102q20 -9 47 -13.5q27 -4.5 53 -4.5q40 0 73 12q33 12 58.5 33.5q25.5 21.5 44.5 51.5q19 30 32 65q-29 -15 -62.5 -23q-33.5 -8 -62.5 -8q-42 0 -73.5 11.5q-31.5 11.5 -53 32q-21.5 20.5 -32.5 49q-11 28.5 -11 62.5q0 54 19 99.5q19 45.5 54 78.5q35 33 83.5 51.5q48.5 18.5 107.5 18.5q89 0 136 -48.5q47 -48.5 47 -138.5q0 -80 -22 -158.5q-22 -78.5 -67 -141.5q-45 -63 -115 -102q-70 -39 -166 -39q-41 0 -74.5 7q-33.5 7 -60.5 19zM270 312q28 0 57.5 7.5q29.5 7.5 57.5 24.5q6 42 6 85q0 20 -4 38q-4 18 -13 31.5q-9 13.5 -24 21.5q-15 8 -36 8q-28 0 -51.5 -11q-23.5 -11 -40.5 -30.5q-17 -19.5 -26.5 -45q-9.5 -25.5 -9.5 -53.5q0 -35 22 -55.5t62 -20.5z" />
<glyph unicode="&#55;" horiz-adv-x="520" d="M400 514h-307l20 94h448l-14 -63l-332 -545l-130 0z" />
<glyph unicode="&#56;" horiz-adv-x="520" d="M164 317q-32 20 -51 48.5q-19 28.5 -19 70.5q0 41 18.5 74.5q18.5 33.5 51.5 57.5q33 24 79.5 37q46.5 13 102.5 13q88 0 136 -37q48 -37 48 -100q0 -33 -11 -60q-11 -27 -28 -47q-17 -20 -39.5 -34.5q-22.5 -14.5 -44.5 -22.5q37 -20 58 -49q21 -29 21 -77q0 -50 -19.5 -87.5q-19.5 -37.5 -55 -62.5q-35.5 -25 -86 -38q-50.5 -13 -112.5 -13q-94 0 -146.5 40q-52.5 40 -52.5 111q0 37 13.5 66.5q13.5 29.5 35 51q21.5 21.5 48.5 36q27 14.5 53 22.5zt0 0zM271 265q-56 0 -88 -30.5q-32 -30.5 -32 -81.5q0 -35 20 -54q20 -19 61 -19q55 0 86.5 31q31.5 31 31.5 79q0 35 -20.5 55q-20.5 20 -58.5 20zt0 0zM327 528q-47 -1 -76 -27.5q-29 -26.5 -29 -71.5q0 -32 18 -51q18 -19 54 -19q47 0 74.5 25q27.5 25 27.5 69q0 31 -15 53t-54 22z" />
<glyph unicode="&#65;" horiz-adv-x="587" d="M405 0l-18 157h-216l-80 -157h-133l330 608h164l87 -608zM222 256h155l-23 256l-8 0z" />
<glyph unicode="&#66;" horiz-adv-x="536" d="M419 322q36 -13 63 -42.5q27 -29.5 27 -71.5q0 -53 -19.5 -92q-19.5 -39 -54.5 -64.5q-35 -25.5 -84 -38.5q-49 -13 -108 -13h-234l129 608h207q41 0 77.5 -5.5q36.5 -5.5 64 -20q27.5 -14.5 43.5 -39.5q16 -25 16 -63q0 -59 -36.5 -100.5q-36.5 -41.5 -90.5 -57.5zt0 0zM377 205q0 30 -24 47.5q-24 17.5 -61 17.5h-105l-37 -173h92q24 0 48.5 5q24.5 5 43.5 17.5q19 12.5 31 33q12 20.5 12 52.5zt0 0zM238 511l-32 -148h100q21 0 40.5 5q19.5 5 34.5 16q15 11 24 27q9 16 9 39q0 30 -21.5 45.5q-21.5 15.5 -53.5 15.5z" />
<glyph unicode="&#67;" horiz-adv-x="535" d="M307 -10q-60 0 -108.5 15.5q-48.5 15.5 -83.5 46.5q-35 31 -54 78q-19 47 -19 109q0 74 21.5 142.5q21.5 68.5 64.5 121q43 52.5 107 84q64 31.5 150 31.5q57 0 107 -16.5q50 -16.5 88 -55.5l-74 -72q-24 23 -55.5 35q-31.5 12 -73.5 12q-55 0 -94.5 -23.5q-39.5 -23.5 -65 -62.5q-25.5 -39 -38 -89q-12.5 -50 -12.5 -102q0 -34 9 -62.5q9 -28.5 28.5 -49.5q19.5 -21 51.5 -32.5q32 -11.5 78 -11.5q37 0 65.5 7q28.5 7 60.5 19l9 -94q-28 -13 -71 -21.5t-91 -8.5z" />
<glyph unicode="&#68;" horiz-adv-x="599" d="M320 608q66 0 117 -17q51 -17 85.5 -48q34.5 -31 52 -74.5q17.5 -43.5 17.5 -97.5q0 -95 -29 -165q-29 -70 -82 -116q-53 -46 -126.5 -68q-73.5 -22 -162.5 -22h-183l129 608zM208 95q58 0 105 17.5q47 17.5 80.5 51.5q33.5 34 51.5 82.5q18 48.5 18 110.5q0 73 -42 114q-42 41 -118 41h-64l-88 -417z" />
<glyph unicode="&#69;" horiz-adv-x="492" d="M425 98l-21 -98h-395l129 608h385l-21 -98h-260l-32 -149h252l-20 -96h-252l-36 -167z" />
<glyph unicode="&#70;" horiz-adv-x="471" d="M133 0h-124l129 608h377l-21 -98h-252l-32 -149h234l-21 -96l-233 0z" />
<glyph unicode="&#71;" horiz-adv-x="595" d="M392 618q64 0 123 -16.5q59 -16.5 98 -52.5l-69 -76q-23 20 -62 34q-39 14 -90 14q-56 0 -98 -19.5q-42 -19.5 -70.5 -55q-28.5 -35.5 -43 -85.5q-14.5 -50 -14.5 -110q0 -77 44 -122q44 -45 136 -45q13 0 26 1q13 1 27 4l31 147h-120l20 95h242l-68 -315q-45 -14 -88 -20q-43 -6 -93 -6q-62 0 -113.5 15.5q-51.5 15.5 -88.5 46.5q-37 31 -58 77.5q-21 46.5 -21 109.5q0 88 26.5 158.5q26.5 70.5 73 119.5q46.5 49 111 75t139.5 26z" />
<glyph unicode="&#72;" horiz-adv-x="599" d="M624 608l-129 -608h-124l54 255h-238l-54 -255h-124l129 608h125l-55 -254h238l54 254z" />
<glyph unicode="&#73;" horiz-adv-x="238" d="M138 608h125l-130 -608l-124 0z" />
<glyph unicode="&#74;" horiz-adv-x="327" d="M359 608l-98 -459q-9 -44 -26 -74q-17 -30 -42 -48q-25 -18 -58.5 -26q-33.5 -8 -76.5 -8q-19 0 -43 2.5q-24 2.5 -45 9.5v93q50 -8 78 -8q38 0 61 18.5q23 18.5 33 63.5l92 436z" />
<glyph unicode="&#75;" horiz-adv-x="533" d="M133 0h-124l129 608h125l-55 -256h43l234 256h144l-287 -308l161 -300h-141l-131 256l-43 0z" />
<glyph unicode="&#76;" horiz-adv-x="428" d="M393 98l-21 -98h-363l129 608h125l-109 -510z" />
<glyph unicode="&#77;" horiz-adv-x="758" d="M783 608l-129 -608h-124l109 512h-8l-216 -512h-165v512h-8l-109 -512h-124l129 608h216v-512h7l210 512z" />
<glyph unicode="&#78;" horiz-adv-x="647" d="M674 608l-130 -608h-214l-80 512h-8l-109 -512h-124l129 608h215l80 -512h7l109 512z" />
<glyph unicode="&#79;" horiz-adv-x="626" d="M272 -10q-113 0 -171.5 57.5q-58.5 57.5 -58.5 171.5q0 91 24.5 165q24.5 74 69.5 126q45 52 109 80q64 28 144 28q113 0 171.5 -58q58.5 -58 58.5 -171q0 -92 -24.5 -166q-24.5 -74 -70 -126q-45.5 -52 -109.5 -79.5q-64 -27.5 -143 -27.5zt0 0zM373 525q-41 0 -77 -21q-36 -21 -64 -59.5q-28 -38.5 -44 -94q-16 -55.5 -16 -124.5q0 -69 30 -105q30 -36 84 -36q40 0 76.5 20.5q36.5 20.5 64.5 59.5q28 39 44 94.5q16 55.5 16 124.5q0 70 -30 105.5t-84 35.5z" />
<glyph unicode="&#80;" horiz-adv-x="514" d="M9 0l129 608h193q101 0 155.5 -38.5q54.5 -38.5 54.5 -122.5q0 -59 -21.5 -102q-21.5 -43 -58.5 -71q-37 -28 -86 -41.5q-49 -13.5 -104 -13.5h-92l-47 -219zM199 315h81q25 0 48.5 7q23.5 7 41.5 21.5q18 14.5 29 37q11 22.5 11 52.5q0 22 -8.5 37q-8.5 15 -22.5 24q-14 9 -32 12.5q-18 3.5 -38 3.5l-68 0z" />
<glyph unicode="&#81;" horiz-adv-x="626" d="M272 -10q-113 0 -171.5 57.5q-58.5 57.5 -58.5 171.5q0 91 24.5 165q24.5 74 69.5 126q45 52 109 80q64 28 144 28q113 0 171.5 -58q58.5 -58 58.5 -171q0 -92 -24.5 -166q-24.5 -74 -70.5 -126q-31 -37 -72 -61q13 -16 26 -31q29 -35 64 -72q-28 -17 -49.5 -33q-21.5 -16 -50.5 -33l-106 128q-31 -5 -64 -5zt0 0zM373 525q-41 0 -77 -21q-36 -21 -64 -59.5q-28 -38.5 -44 -94q-16 -55.5 -16 -124.5q0 -69 30 -105q30 -36 84 -36q40 0 76.5 20.5q36.5 20.5 64.5 59.5q28 39 44 94.5q16 55.5 16 124.5q0 70 -30 105.5t-84 35.5z" />
<glyph unicode="&#82;" horiz-adv-x="540" d="M254 239h-71l-51 -239h-123l129 608h205q45 0 83.5 -7.5q38.5 -7.5 66.5 -25.5q28 -18 44 -47q16 -29 16 -71q0 -45 -13.5 -79.5q-13.5 -34.5 -36.5 -59.5q-23 -25 -55.5 -41.5q-32.5 -16.5 -69.5 -26.5l99 -250h-135zM203 335h107q20 0 40 5.5q20 5.5 36 18q16 12.5 26 33.5q10 21 10 51q0 21 -10 34q-10 13 -25.5 20.5q-15.5 7.5 -34 10q-18.5 2.5 -35.5 2.5l-76 0z" />
<glyph unicode="&#84;" horiz-adv-x="500" d="M564 608l-20 -98h-174l-108 -510h-124l108 510h-173l21 98z" />
<glyph unicode="&#85;" horiz-adv-x="578" d="M608 608l-77 -365q-29 -134 -100.5 -193.5q-71.5 -59.5 -187.5 -59.5q-67 0 -108.5 20.5q-41.5 20.5 -62 58q-20.5 37.5 -21.5 88.5q-1 51 12 113l71 338h124l-79 -373q-6 -26 -7 -52.5q-1 -26.5 6 -48q7 -21.5 25.5 -35q18.5 -13.5 51.5 -13.5q33 0 57.5 9q24.5 9 42.5 28.5q18 19.5 31 50.5q13 31 22 76l76 358z" />
<glyph unicode="&#86;" horiz-adv-x="548" d="M497 608h129l-303 -608h-164l-76 608h126l48 -511l8 0z" />
<glyph unicode="&#87;" horiz-adv-x="860" d="M662 0h-176l10 512h-8l-186 -512h-179l-31 608h125l13 -511h8l184 511h182l-12 -511h8l200 511l126 0z" />
<glyph unicode="&#88;" horiz-adv-x="550" d="M92 0h-138l249 314l-109 294h135l72 -225h17l159 225h140l-229 -295l117 -313h-135l-83 246l-18 0z" />
<glyph unicode="&#89;" horiz-adv-x="535" d="M286 0h-124l61 239q-18 39 -37 87.5q-19 48.5 -37.5 99q-18.5 50.5 -36.5 98q-18 47.5 -36 84.5l132 0l86 -259h8l184 259h131l-279 -369z" />
<glyph unicode="&#90;" horiz-adv-x="524" d="M152 97h312l-19 -97h-463l14 77l399 435h-292l19 96h443l-16 -77z" />
<glyph unicode="&#97;" horiz-adv-x="466" d="M282 37q-25 -24 -57 -35.5q-32 -11.5 -70 -11.5q-65 0 -99.5 39.5q-34.5 39.5 -34.5 111.5q0 76 20.5 131q20.5 55 54 91q33.5 36 77.5 53q44 17 92 17q26 0 52.5 -5q26.5 -5 50.5 -19h7h91l-59 -248l-22 -161h-97zM208 70q36 0 64 20l55 259q-23 9 -41 9q-34 0 -60 -14.5q-26 -14.5 -43.5 -41q-17.5 -26.5 -27 -63q-9.5 -36.5 -9.5 -80.5q0 -41 14 -65t48 -24z" />
<glyph unicode="&#98;" horiz-adv-x="467" d="M210 406q43 27 102 27q61 0 97 -41q36 -41 36 -110q0 -55 -15.5 -107.5q-15.5 -52.5 -47 -93q-31.5 -40.5 -79 -65q-47.5 -24.5 -111.5 -24.5q-24 0 -48 4q-24 4 -46 15h-6h-91l135 615l125 16zM258 353q-36 0 -64 -20l-56 -258q11 -5 20.5 -6q9.5 -1 18.5 -1q39 0 67 18q28 18 45 46.5q17 28.5 25 64.5q8 36 8 73q0 36 -16.5 59.5t-47.5 23.5z" />
<glyph unicode="&#100;" horiz-adv-x="465" d="M281 0l-4 30q-47 -40 -121 -40q-65 0 -99.5 39.5q-34.5 39.5 -34.5 111.5q0 78 21.5 133.5q21.5 55.5 57.5 91q36 35.5 84 51.5q48 16 101 16q34 0 58 -7l43 200l126 16l-112 -528l-16 -114zM209 70q37 0 65 20l54 257q-20 7 -38 7q-69 0 -106 -53.5q-37 -53.5 -37 -141.5q0 -41 14 -65t48 -24z" />
<glyph unicode="&#101;" horiz-adv-x="449" d="M383 35q-14 -8 -35 -15.5q-21 -7.5 -45.5 -14.5q-24.5 -7 -51 -11q-26.5 -4 -52.5 -4q-38 0 -70 8.5q-32 8.5 -56 27.5q-24 19 -37.5 49q-13.5 30 -13.5 73q0 57 16 108.5q16 51.5 49 90.5q33 39 82 62.5q49 23.5 115 23.5q73 0 114 -28.5q41 -28.5 41 -82.5q0 -49 -27 -79.5q-27 -30.5 -69.5 -48q-42.5 -17.5 -94.5 -25.5q-52 -8 -102 -11l0 -11q0 -36 21 -54q21 -18 68 -18q45 0 82.5 10.5q37.5 10.5 65.5 24.5zM265 354q-27 0 -46 -10.5q-19 -10.5 -32.5 -28q-13.5 -17.5 -22 -40.5q-8.5 -23 -12.5 -47q33 2 63 6.5q30 4.5 52.5 13.5q22.5 9 36 23q13.5 14 13.5 37q0 22 -14.5 34t-37.5 12z" />
<glyph unicode="&#102;" horiz-adv-x="336" d="M346 553q-42 0 -63.5 -18q-21.5 -18 -29.5 -56l-11 -56h125l-19 -88h-124l-79 -376q-10 -48 -29 -80.5q-19 -32.5 -45.5 -52.5q-26.5 -20 -60 -28.5q-33.5 -8.5 -72.5 -8.5q-13 0 -26 1q-13 1 -24 3l24 87q7 -1 13.5 -1.5q6.5 -0.5 13.5 -0.5q42 0 60.5 18q18.5 18 26.5 56l77 383h-72l19 88h70l10 49q9 48 29.5 80.5q20.5 32.5 49 52.5q28.5 20 64 28.5q35.5 8.5 74.5 8.5q28 0 53.5 -4q25.5 -4 45.5 -13l-43 -85q-25 13 -57 13z" />
<glyph unicode="&#103;" horiz-adv-x="466" d="M267 433q26 0 52 -5q26 -5 49 -19h8h91l-93 -420q-12 -55 -34.5 -93.5q-22.5 -38.5 -54.5 -62.5q-32 -24 -72.5 -35q-40.5 -11 -87.5 -11q-37 0 -75 5.5q-38 5.5 -61 13.5l34 88q15 -6 42.5 -12q27.5 -6 62.5 -6q45 0 78 20q33 20 44 71l11 52q-44 -29 -103 -29q-65 0 -100 39.5q-35 39.5 -35 111.5q0 76 20 131q20 55 54 91q34 36 78 53q44 17 92 17zt0 0zM211 69q35 0 63 20l54 257q-11 5 -21 7q-10 2 -19 2q-69 0 -104.5 -53.5q-35.5 -53.5 -35.5 -142.5q0 -40 14 -65t49 -25z" />
<glyph unicode="&#104;" horiz-adv-x="458" d="M3 0l133 626l126 16l-53 -246q27 18 56.5 27.5q29.5 9.5 58.5 9.5q61 0 88 -26q27 -26 27 -76q0 -13 -2 -27q-2 -14 -5 -30l-58 -274h-123l56 259q2 11 4 22q2 11 2 22q0 17 -7.5 28.5q-7.5 11.5 -30.5 11.5q-45 0 -87 -48l-63 -295z" />
<glyph unicode="&#105;" horiz-adv-x="215" d="M111 511l20 97h125l-21 -97zM3 0l90 423h122l-90 -423z" />
<glyph unicode="&#106;" horiz-adv-x="213" d="M-105 -213l19 87h10q32 0 46 17q14 17 23 60l101 472h121l-97 -457q-11 -52 -28.5 -86.5q-17.5 -34.5 -44 -55q-26.5 -20.5 -62 -29q-35.5 -8.5 -81.5 -8.5zM111 513l20 95h124l-21 -95z" />
<glyph unicode="&#107;" horiz-adv-x="438" d="M3 0l133 626l125 16l-79 -368h29l147 149h135l-198 -196l117 -227h-134l-87 183h-28l-39 -183z" />
<glyph unicode="&#108;" horiz-adv-x="229" d="M172 -3q-5 -1 -10 -1q-5 -1 -11 -1q-6 0 -11 0q-59 0 -86.5 22q-27.5 22 -27.5 69q0 23 6 50l104 490l125 16l-106 -498q-6 -26 -6 -37q0 -14 9 -19.5q9 -5.5 32 -6.5z" />
<glyph unicode="&#109;" horiz-adv-x="680" d="M3 0l55 257l25 166h98v-47q29 27 65 42q36 15 71 15q81 0 101 -54q30 26 65 40q35 14 69 14q57 0 83 -26q26 -26 26 -75q0 -13 -2 -27.5q-2 -14.5 -5 -30.5l-58 -274h-123l56 259q2 11 3.5 22.5q1.5 11.5 1.5 22.5q0 17 -6.5 28q-6.5 11 -24.5 11q-43 0 -80 -45l-4 -24l-58 -274h-123l56 259q2 11 3.5 22.5q1.5 11.5 1.5 22.5q0 17 -6.5 28q-6.5 11 -24.5 11q-41 0 -79 -43l-64 -300z" />
<glyph unicode="&#110;" horiz-adv-x="458" d="M3 0l55 257l25 166h98v-48q31 27 69 42.5q38 15.5 74 15.5q61 0 88 -26q27 -26 27 -76q0 -13 -2 -27q-2 -14 -5 -30l-58 -274h-123l56 259q2 11 4 22q2 11 2 22q0 17 -7.5 28.5q-7.5 11.5 -30.5 11.5q-45 0 -87 -47l-63 -296z" />
<glyph unicode="&#111;" horiz-adv-x="476" d="M188 -10q-89 0 -128 41q-39 41 -39 111q0 66 18.5 119.5q18.5 53.5 53 92q34.5 38.5 84.5 59q50 20.5 113 20.5q89 0 128.5 -42q39.5 -42 39.5 -112q0 -66 -18.5 -119.5q-18.5 -53.5 -53.5 -91q-35 -37.5 -85 -58q-50 -20.5 -113 -20.5zt0 0zM206 72q27 0 50.5 14q23.5 14 41 40q17.5 26 27 63q9.5 37 9.5 84q0 32 -15 55.5q-15 23.5 -47 23.5q-27 0 -50 -14q-23 -14 -40 -40.5q-17 -26.5 -26.5 -64q-9.5 -37.5 -9.5 -83.5q0 -33 14.5 -55.5t45.5 -22.5z" />
<glyph unicode="&#113;" horiz-adv-x="468" d="M260 17q-44 -27 -102 -27q-61 0 -97 41q-36 41 -36 110q0 55 15.5 107.5q15.5 52.5 47 93q31.5 40.5 79 65q47.5 24.5 111.5 24.5q24 0 47.5 -4q23.5 -4 46.5 -15h6h91l-134 -609l-125 -16zM293 355q-39 0 -67 -18q-28 -18 -45 -46.5q-17 -28.5 -25 -64.5q-8 -36 -8 -73q0 -36 16.5 -59.5q16.5 -23.5 47.5 -23.5q36 0 64 20l56 258q-20 7 -39 7z" />
<glyph unicode="&#114;" horiz-adv-x="343" d="M3 0l55 257l25 166h98v-65q27 35 62.5 55q35.5 20 80.5 20q21 0 36 -3q15 -3 25 -8l-42 -97q-20 10 -46 10q-70 0 -115 -71l-57 -264z" />
<glyph unicode="&#115;" horiz-adv-x="394" d="M41 106q25 -13 56.5 -21q31.5 -8 65.5 -8q9 0 22 1q13 1 24 4.5q11 3.5 19 11.5q8 8 8 22q0 17 -11.5 26q-11.5 9 -35.5 20q-11 5 -30.5 12.5q-19.5 7.5 -29.5 12.5q-40 17 -63 39.5q-23 22.5 -23 59.5q0 40 17.5 68q17.5 28 46.5 45.5q29 17.5 65.5 25.5q36.5 8 75.5 8q45 0 82 -8.5q37 -8.5 57 -17.5l-35 -86q-25 13 -51.5 20q-26.5 7 -61.5 7q-9 0 -22 -1q-13 -1 -25.5 -4.5q-12.5 -3.5 -21 -11.5q-8.5 -8 -8.5 -22q0 -16 12 -24.5q12 -8.5 34 -17.5q6 -3 15 -6.5q9 -3.5 18.5 -7q9.5 -3.5 18.5 -7q9 -3.5 14 -5.5q35 -14 58.5 -37.5q23.5 -23.5 23.5 -60.5q0 -42 -17 -71q-17 -29 -45 -47.5q-28 -18.5 -65 -26.5q-37 -8 -77 -8q-51 0 -84.5 8.5q-33.5 8.5 -65.5 22.5z" />
<glyph unicode="&#116;" horiz-adv-x="353" d="M312 22q-35 -18 -67.5 -25q-32.5 -7 -72.5 -7q-119 0 -119 103q0 10 1.5 21q1.5 11 3.5 23l42 198h-70l17 78l70 8l18 81l126 21l-21 -100h140l-19 -87h-139l-36 -170q-2 -11 -4 -22q-2 -11 -2 -20q0 -18 9 -29q9 -11 35 -11q25 0 46.5 4.5q21.5 4.5 41.5 12.5z" />
<glyph unicode="&#117;" horiz-adv-x="459" d="M211 423l-56 -259q-2 -11 -4 -23q-2 -12 -2 -22q0 -17 7.5 -28q7.5 -11 30.5 -11q45 0 86 47l64 296h122l-55 -257l-25 -166h-98v48q-32 -28 -70 -43q-38 -15 -73 -15q-61 0 -88 26q-27 26 -27 76q0 13 2.5 29q2.5 16 4.5 28l58 274z" />
<glyph unicode="&#118;" horiz-adv-x="415" d="M83 0l-47 423h123l20 -341h8l155 341h124l-224 -423z" />
<glyph unicode="&#119;" horiz-adv-x="654" d="M335 0l25 341h-8l-118 -341h-170l-15 423h120v-341h8l113 341h164l-21 -341h8l131 341h121l-192 -423z" />
<glyph unicode="&#120;" horiz-adv-x="434" d="M264 0l-48 164h-14l-112 -164h-128l165 221l-77 202h133l44 -156h15l106 156h130l-160 -202l80 -221z" />
<glyph unicode="&#121;" horiz-adv-x="426" d="M-37 -126q9 -2 18 -2q9 0 16 0q30 0 47.5 9.5q17.5 9.5 28.5 21.5q13 14 29 42q16 28 31 55l-89 423h121l44 -290h9l134 290h120l-245 -459q-21 -40 -43 -72.5q-22 -32.5 -49 -56q-27 -23.5 -61 -36q-34 -12.5 -79 -12.5q-15 0 -31 1q-16 1 -30 6z" />
<glyph unicode="&#122;" horiz-adv-x="424" d="M-17 0l15 70l281 266h-217l20 87h361l-15 -70l-282 -266h228l-19 -87z" />
<glyph unicode="&#180;" horiz-adv-x="487" d="M473 634l-154 -146h-114l131 146z" />
<glyph unicode="&#96;" horiz-adv-x="487" d="M326 634l72 -146h-107l-97 146z" />
<glyph unicode="&#710;" horiz-adv-x="487" d="M414 634l56 -146h-101l-36 85h-10l-83 -85h-105l130 146z" />
<glyph unicode="&#711;" horiz-adv-x="487" d="M226 488l-59 146h103l39 -85h10l79 85h104l-125 -146z" />
<glyph unicode="&#728;" horiz-adv-x="500" d="M308 480q-64 0 -95.5 27.5q-31.5 27.5 -42.5 84.5l88 24q4 -29 18.5 -43.5q14.5 -14.5 48.5 -14.5q30 0 48 14.5q18 14.5 35 43.5l86 -24q-23 -57 -66.5 -84.5t-119.5 -27.5z" />
<glyph unicode="&#729;" horiz-adv-x="487" d="M371 511h-124l21 97l124 0z" />
<glyph unicode="&#168;" horiz-adv-x="487" d="M276 511h-119l21 97h119zM460 511h-119l20 97l119 0z" />
<glyph unicode="&#732;" horiz-adv-x="488" d="M480 547q-24 -20 -54 -33.5q-30 -13.5 -64 -13.5q-22 0 -39 5q-17 5 -32.5 11.5q-15.5 6.5 -30.5 11.5q-15 5 -32 5q-23 0 -42 -8q-19 -8 -37 -20l-30 68q24 20 54 33q30 13 64 13q22 0 39 -5q17 -5 32.5 -11q15.5 -6 30.5 -11q15 -5 32 -5q23 0 42.5 8q19.5 8 36.5 20z" />
<glyph unicode="&#175;" horiz-adv-x="488" d="M455 514h-293l19 91l293 0z" />
<glyph unicode="&#730;" horiz-adv-x="488" d="M287 457q-49 0 -72.5 25.5q-23.5 25.5 -23.5 58.5q0 56 34.5 88.5q34.5 32.5 100.5 32.5q48 0 72 -26q24 -26 24 -59q0 -57 -34.5 -88.5q-34.5 -31.5 -100.5 -31.5zt0 0zM299 521q22 0 34.5 11q12.5 11 12.5 33q0 14 -8.5 23q-8.5 9 -23.5 9q-48 0 -48 -44q0 -14 8.5 -23t24.5 -9z" />
<glyph unicode="&#731;" horiz-adv-x="259" d="M158 -189q-20 -9 -50 -14.5q-30 -5.5 -58 -5.5q-99 0 -99 73q0 20 4 38q4 18 17 35q13 17 37 33q24 16 63 33q26 11 52 18.5q26 7.5 49 11.5l4 -33q-17 -8 -33 -16q-16 -8 -30 -18q-26 -18 -34.5 -33.5q-8.5 -15.5 -8.5 -35.5q0 -30 35 -30q11 0 22.5 1.5q11.5 1.5 21.5 5.5z" />
<glyph unicode="&#184;" horiz-adv-x="487" d="M84 -126q14 -5 26 -7.5q12 -2.5 27 -2.5q25 0 40.5 8.5q15.5 8.5 15.5 32.5q0 18 -16 24q-16 6 -52 12l35 58q72 -6 109 -25q37 -19 37 -62q0 -57 -38.5 -89.5q-38.5 -32.5 -130.5 -32.5q-27 0 -53 5q-26 5 -41 11z" />
<glyph unicode="&#63171;" horiz-adv-x="509" d="M83 -225q36 42 53.5 83q17.5 41 26.5 92l105 0q-8 -40 -18.5 -72q-10.5 -32 -25.5 -59q-15 -27 -34 -50.5q-19 -23.5 -44 -46.5z" />
<glyph unicode="&#225;" horiz-adv-x="466" d="M282 37q-25 -24 -57 -35.5q-32 -11.5 -70 -11.5q-65 0 -99.5 39.5q-34.5 39.5 -34.5 111.5q0 76 20.5 131q20.5 55 54 91q33.5 36 77.5 53q44 17 92 17q26 0 52.5 -5q26.5 -5 50.5 -19h7h91l-59 -248l-22 -161h-97zM208 70q36 0 64 20l55 259q-23 9 -41 9q-34 0 -60 -14.5q-26 -14.5 -43.5 -41q-17.5 -26.5 -27 -63q-9.5 -36.5 -9.5 -80.5q0 -41 14 -65q14 -24 48 -24zt0 0zM496 634l-154 -146h-114l131 146z" />
<glyph unicode="&#224;" horiz-adv-x="466" d="M282 37q-25 -24 -57 -35.5q-32 -11.5 -70 -11.5q-65 0 -99.5 39.5q-34.5 39.5 -34.5 111.5q0 76 20.5 131q20.5 55 54 91q33.5 36 77.5 53q44 17 92 17q26 0 52.5 -5q26.5 -5 50.5 -19h7h91l-59 -248l-22 -161h-97zM208 70q36 0 64 20l55 259q-23 9 -41 9q-34 0 -60 -14.5q-26 -14.5 -43.5 -41q-17.5 -26.5 -27 -63q-9.5 -36.5 -9.5 -80.5q0 -41 14 -65q14 -24 48 -24zt0 0zM305 634l72 -146h-107l-97 146z" />
<glyph unicode="&#226;" horiz-adv-x="466" d="M282 37q-25 -24 -57 -35.5q-32 -11.5 -70 -11.5q-65 0 -99.5 39.5q-34.5 39.5 -34.5 111.5q0 76 20.5 131q20.5 55 54 91q33.5 36 77.5 53q44 17 92 17q26 0 52.5 -5q26.5 -5 50.5 -19h7h91l-59 -248l-22 -161h-97zM208 70q36 0 64 20l55 259q-23 9 -41 9q-34 0 -60 -14.5q-26 -14.5 -43.5 -41q-17.5 -26.5 -27 -63q-9.5 -36.5 -9.5 -80.5q0 -41 14 -65q14 -24 48 -24zt0 0zM407 634l56 -146h-101l-36 85h-10l-83 -85h-105l130 146z" />
<glyph unicode="&#259;" horiz-adv-x="466" d="M282 37q-25 -24 -57 -35.5q-32 -11.5 -70 -11.5q-65 0 -99.5 39.5q-34.5 39.5 -34.5 111.5q0 76 20.5 131q20.5 55 54 91q33.5 36 77.5 53q44 17 92 17q26 0 52.5 -5q26.5 -5 50.5 -19h7h91l-59 -248l-22 -161h-97zM208 70q36 0 64 20l55 259q-23 9 -41 9q-34 0 -60 -14.5q-26 -14.5 -43.5 -41q-17.5 -26.5 -27 -63q-9.5 -36.5 -9.5 -80.5q0 -41 14 -65q14 -24 48 -24zt0 0zM297 480q-64 0 -95.5 27.5q-31.5 27.5 -42.5 84.5l88 24q4 -29 18.5 -43.5q14.5 -14.5 48.5 -14.5q30 0 48 14.5q18 14.5 35 43.5l86 -24q-23 -57 -66.5 -84.5t-119.5 -27.5z" />
<glyph unicode="&#228;" horiz-adv-x="466" d="M282 37q-25 -24 -57 -35.5q-32 -11.5 -70 -11.5q-65 0 -99.5 39.5q-34.5 39.5 -34.5 111.5q0 76 20.5 131q20.5 55 54 91q33.5 36 77.5 53q44 17 92 17q26 0 52.5 -5q26.5 -5 50.5 -19h7h91l-59 -248l-22 -161h-97zM208 70q36 0 64 20l55 259q-23 9 -41 9q-34 0 -60 -14.5q-26 -14.5 -43.5 -41q-17.5 -26.5 -27 -63q-9.5 -36.5 -9.5 -80.5q0 -41 14 -65q14 -24 48 -24zt0 0zM274 511h-119l21 97h119zM458 511h-119l20 97l119 0z" />
<glyph unicode="&#227;" horiz-adv-x="466" d="M282 37q-25 -24 -57 -35.5q-32 -11.5 -70 -11.5q-65 0 -99.5 39.5q-34.5 39.5 -34.5 111.5q0 76 20.5 131q20.5 55 54 91q33.5 36 77.5 53q44 17 92 17q26 0 52.5 -5q26.5 -5 50.5 -19h7h91l-59 -248l-22 -161h-97zM208 70q36 0 64 20l55 259q-23 9 -41 9q-34 0 -60 -14.5q-26 -14.5 -43.5 -41q-17.5 -26.5 -27 -63q-9.5 -36.5 -9.5 -80.5q0 -41 14 -65q14 -24 48 -24zt0 0zM475 547q-24 -20 -54 -33.5q-30 -13.5 -64 -13.5q-22 0 -39 5q-17 5 -32.5 11.5q-15.5 6.5 -30.5 11.5q-15 5 -32 5q-23 0 -42 -8q-19 -8 -37 -20l-30 68q24 20 54 33q30 13 64 13q22 0 39 -5q17 -5 32.5 -11q15.5 -6 30.5 -11q15 -5 32 -5q23 0 42.5 8q19.5 8 36.5 20z" />
<glyph unicode="&#257;" horiz-adv-x="466" d="M282 37q-25 -24 -57 -35.5q-32 -11.5 -70 -11.5q-65 0 -99.5 39.5q-34.5 39.5 -34.5 111.5q0 76 20.5 131q20.5 55 54 91q33.5 36 77.5 53q44 17 92 17q26 0 52.5 -5q26.5 -5 50.5 -19h7h91l-59 -248l-22 -161h-97zM208 70q36 0 64 20l55 259q-23 9 -41 9q-34 0 -60 -14.5q-26 -14.5 -43.5 -41q-17.5 -26.5 -27 -63q-9.5 -36.5 -9.5 -80.5q0 -41 14 -65q14 -24 48 -24zt0 0zM463 514h-293l19 91l293 0z" />
<glyph unicode="&#229;" horiz-adv-x="466" d="M282 37q-25 -24 -57 -35.5q-32 -11.5 -70 -11.5q-65 0 -99.5 39.5q-34.5 39.5 -34.5 111.5q0 76 20.5 131q20.5 55 54 91q33.5 36 77.5 53q44 17 92 17q26 0 52.5 -5q26.5 -5 50.5 -19h7h91l-59 -248l-22 -161h-97zM208 70q36 0 64 20l55 259q-23 9 -41 9q-34 0 -60 -14.5q-26 -14.5 -43.5 -41q-17.5 -26.5 -27 -63q-9.5 -36.5 -9.5 -80.5q0 -41 14 -65q14 -24 48 -24zt0 0zM293 457q-49 0 -72.5 25.5q-23.5 25.5 -23.5 58.5q0 56 34.5 88.5q34.5 32.5 100.5 32.5q48 0 72 -26q24 -26 24 -59q0 -57 -34.5 -88.5q-34.5 -31.5 -100.5 -31.5zt0 0zM305 521q22 0 34.5 11q12.5 11 12.5 33q0 14 -8.5 23q-8.5 9 -23.5 9q-48 0 -48 -44q0 -14 8.5 -23t24.5 -9z" />
<glyph unicode="&#261;" horiz-adv-x="466" d="M282 37q-25 -24 -57 -35.5q-32 -11.5 -70 -11.5q-65 0 -99.5 39.5q-34.5 39.5 -34.5 111.5q0 76 20.5 131q20.5 55 54 91q33.5 36 77.5 53q44 17 92 17q26 0 52.5 -5q26.5 -5 50.5 -19h7h91l-59 -248l-22 -161h-97zM208 70q36 0 64 20l55 259q-23 9 -41 9q-34 0 -60 -14.5q-26 -14.5 -43.5 -41q-17.5 -26.5 -27 -63q-9.5 -36.5 -9.5 -80.5q0 -41 14 -65q14 -24 48 -24zt0 0zM366 -189q-20 -9 -50 -14.5q-30 -5.5 -58 -5.5q-99 0 -99 73q0 20 4 38q4 18 17 35q13 17 37 33q24 16 63 33q26 11 52 18.5q26 7.5 49 11.5l4 -33q-17 -8 -33 -16q-16 -8 -30 -18q-26 -18 -34.5 -33.5q-8.5 -15.5 -8.5 -35.5q0 -30 35 -30q11 0 22.5 1.5q11.5 1.5 21.5 5.5z" />
<glyph unicode="&#230;" horiz-adv-x="686" d="M135 -10q-66 0 -99 31.5q-33 31.5 -33 82.5q0 81 55 118q55 37 156 37q31 0 69 -3q5 22 5 40q0 52 -68 52q-36 0 -70 -7.5q-34 -7.5 -63 -21.5l-9 74q38 19 83 29.5q45 10.5 93 10.5q42 0 76 -11.5q34 -11.5 52 -33.5q29 21 64.5 33q35.5 12 75.5 12q73 0 112 -28q39 -28 39 -82q0 -45 -25.5 -74.5q-25.5 -29.5 -64.5 -47q-39 -17.5 -85 -24q-46 -6.5 -87 -6.5h-26v-18q0 -78 88 -78q51 0 89.5 12q38.5 12 55.5 22l0 -75q-14 -8 -34.5 -15.5q-20.5 -7.5 -44.5 -14q-24 -6.5 -50 -10.5q-26 -4 -52 -4q-50 0 -83.5 11q-33.5 11 -53.5 33q-27 -15 -67 -29.5q-40 -14.5 -98 -14.5zt0 0zM266 138q0 10 0 20.5q0 10.5 2 21.5q-30 3 -61 3q-45 0 -61 -18.5q-16 -18.5 -16 -41.5q0 -24 16 -38q16 -14 42 -14q26 0 46.5 8.5q20.5 8.5 34.5 19.5q-3 18 -3 39zt0 0zM503 354q-47 0 -73 -28.5q-26 -28.5 -37 -81.5l18 0q22 0 47 2.5q25 2.5 46 10q21 7.5 35 21q14 13.5 14 34.5q0 23 -13.5 32.5t-36.5 9.5z" />
<glyph unicode="&#263;" horiz-adv-x="405" d="M345 27q-26 -16 -62 -26.5q-36 -10.5 -88 -10.5q-46 0 -78.5 12q-32.5 12 -53.5 34.5q-21 22.5 -31 54.5q-10 32 -10 71q0 63 19 113.5q19 50.5 53.5 85.5q34.5 35 82 53.5q47.5 18.5 104.5 18.5q44 0 85 -12.5q41 -12.5 61 -33.5l-73 -70q-27 34 -83 34q-28 0 -51.5 -12.5q-23.5 -12.5 -40 -35.5q-16.5 -23 -26 -55q-9.5 -32 -9.5 -71q0 -49 21.5 -76.5q21.5 -27.5 66.5 -27.5q31 0 59 8.5q28 8.5 54 20.5zM481 634l-154 -146h-114l131 146z" />
<glyph unicode="&#269;" horiz-adv-x="405" d="M345 27q-26 -16 -62 -26.5q-36 -10.5 -88 -10.5q-46 0 -78.5 12q-32.5 12 -53.5 34.5q-21 22.5 -31 54.5q-10 32 -10 71q0 63 19 113.5q19 50.5 53.5 85.5q34.5 35 82 53.5q47.5 18.5 104.5 18.5q44 0 85 -12.5q41 -12.5 61 -33.5l-73 -70q-27 34 -83 34q-28 0 -51.5 -12.5q-23.5 -12.5 -40 -35.5q-16.5 -23 -26 -55q-9.5 -32 -9.5 -71q0 -49 21.5 -76.5q21.5 -27.5 66.5 -27.5q31 0 59 8.5q28 8.5 54 20.5zM220 488l-59 146h103l39 -85h10l79 85h104l-125 -146z" />
<glyph unicode="&#231;" horiz-adv-x="405" d="M345 27q-26 -16 -62 -26.5q-36 -10.5 -88 -10.5q-46 0 -78.5 12q-32.5 12 -53.5 34.5q-21 22.5 -31 54.5q-10 32 -10 71q0 63 19 113.5q19 50.5 53.5 85.5q34.5 35 82 53.5q47.5 18.5 104.5 18.5q44 0 85 -12.5q41 -12.5 61 -33.5l-73 -70q-27 34 -83 34q-28 0 -51.5 -12.5q-23.5 -12.5 -40 -35.5q-16.5 -23 -26 -55q-9.5 -32 -9.5 -71q0 -49 21.5 -76.5q21.5 -27.5 66.5 -27.5q31 0 59 8.5q28 8.5 54 20.5zM72 -126q14 -5 26 -7.5q12 -2.5 27 -2.5q25 0 40.5 8.5q15.5 8.5 15.5 32.5q0 18 -16 24q-16 6 -52 12l35 58q72 -6 109 -25q37 -19 37 -62q0 -57 -38.5 -89.5q-38.5 -32.5 -130.5 -32.5q-27 0 -53 5q-26 5 -41 11z" />
<glyph unicode="&#265;" horiz-adv-x="405" d="M345 27q-26 -16 -62 -26.5q-36 -10.5 -88 -10.5q-46 0 -78.5 12q-32.5 12 -53.5 34.5q-21 22.5 -31 54.5q-10 32 -10 71q0 63 19 113.5q19 50.5 53.5 85.5q34.5 35 82 53.5q47.5 18.5 104.5 18.5q44 0 85 -12.5q41 -12.5 61 -33.5l-73 -70q-27 34 -83 34q-28 0 -51.5 -12.5q-23.5 -12.5 -40 -35.5q-16.5 -23 -26 -55q-9.5 -32 -9.5 -71q0 -49 21.5 -76.5q21.5 -27.5 66.5 -27.5q31 0 59 8.5q28 8.5 54 20.5zM394 634l56 -146h-101l-36 85h-10l-83 -85h-105l130 146z" />
<glyph unicode="&#267;" horiz-adv-x="405" d="M345 27q-26 -16 -62 -26.5q-36 -10.5 -88 -10.5q-46 0 -78.5 12q-32.5 12 -53.5 34.5q-21 22.5 -31 54.5q-10 32 -10 71q0 63 19 113.5q19 50.5 53.5 85.5q34.5 35 82 53.5q47.5 18.5 104.5 18.5q44 0 85 -12.5q41 -12.5 61 -33.5l-73 -70q-27 34 -83 34q-28 0 -51.5 -12.5q-23.5 -12.5 -40 -35.5q-16.5 -23 -26 -55q-9.5 -32 -9.5 -71q0 -49 21.5 -76.5q21.5 -27.5 66.5 -27.5q31 0 59 8.5q28 8.5 54 20.5zM355 511h-124l21 97l124 0z" />
<glyph unicode="&#271;" horiz-adv-x="583" d="M601 479h-80l52 155h118zM281 0l-4 30q-47 -40 -121 -40q-65 0 -99.5 39.5q-34.5 39.5 -34.5 111.5q0 78 21.5 133.5q21.5 55.5 57.5 91q36 35.5 84 51.5q48 16 101 16q34 0 58 -7l43 200l126 16l-112 -528l-16 -114zM209 70q37 0 65 20l54 257q-20 7 -38 7q-69 0 -106 -53.5q-37 -53.5 -37 -141.5q0 -41 14 -65t48 -24z" />
<glyph unicode="&#273;" horiz-adv-x="472" d="M281 0l-4 30q-47 -40 -121 -40q-65 0 -99.5 39.5q-34.5 39.5 -34.5 111.5q0 78 21.5 133.5q21.5 55.5 57.5 91q36 35.5 84 51.5q48 16 101 16q34 0 58 -7l11 51h-86l18 82h85l15 67l126 16l-18 -83h71l-17 -82h-71l-77 -363l-16 -114zM209 70q37 0 65 20l54 257q-20 7 -38 7q-69 0 -106 -53.5q-37 -53.5 -37 -141.5q0 -41 14 -65t48 -24z" />
<glyph unicode="&#233;" horiz-adv-x="449" d="M383 35q-14 -8 -35 -15.5q-21 -7.5 -45.5 -14.5q-24.5 -7 -51 -11q-26.5 -4 -52.5 -4q-38 0 -70 8.5q-32 8.5 -56 27.5q-24 19 -37.5 49q-13.5 30 -13.5 73q0 57 16 108.5q16 51.5 49 90.5q33 39 82 62.5q49 23.5 115 23.5q73 0 114 -28.5q41 -28.5 41 -82.5q0 -49 -27 -79.5q-27 -30.5 -69.5 -48q-42.5 -17.5 -94.5 -25.5q-52 -8 -102 -11l0 -11q0 -36 21 -54q21 -18 68 -18q45 0 82.5 10.5q37.5 10.5 65.5 24.5zM265 354q-27 0 -46 -10.5q-19 -10.5 -32.5 -28q-13.5 -17.5 -22 -40.5q-8.5 -23 -12.5 -47q33 2 63 6.5q30 4.5 52.5 13.5q22.5 9 36 23q13.5 14 13.5 37q0 22 -14.5 34q-14.5 12 -37.5 12zt0 0zM491 634l-154 -146h-114l131 146z" />
<glyph unicode="&#232;" horiz-adv-x="449" d="M383 35q-14 -8 -35 -15.5q-21 -7.5 -45.5 -14.5q-24.5 -7 -51 -11q-26.5 -4 -52.5 -4q-38 0 -70 8.5q-32 8.5 -56 27.5q-24 19 -37.5 49q-13.5 30 -13.5 73q0 57 16 108.5q16 51.5 49 90.5q33 39 82 62.5q49 23.5 115 23.5q73 0 114 -28.5q41 -28.5 41 -82.5q0 -49 -27 -79.5q-27 -30.5 -69.5 -48q-42.5 -17.5 -94.5 -25.5q-52 -8 -102 -11l0 -11q0 -36 21 -54q21 -18 68 -18q45 0 82.5 10.5q37.5 10.5 65.5 24.5zM265 354q-27 0 -46 -10.5q-19 -10.5 -32.5 -28q-13.5 -17.5 -22 -40.5q-8.5 -23 -12.5 -47q33 2 63 6.5q30 4.5 52.5 13.5q22.5 9 36 23q13.5 14 13.5 37q0 22 -14.5 34q-14.5 12 -37.5 12zt0 0zM295 634l72 -146h-107l-97 146z" />
<glyph unicode="&#234;" horiz-adv-x="449" d="M383 35q-14 -8 -35 -15.5q-21 -7.5 -45.5 -14.5q-24.5 -7 -51 -11q-26.5 -4 -52.5 -4q-38 0 -70 8.5q-32 8.5 -56 27.5q-24 19 -37.5 49q-13.5 30 -13.5 73q0 57 16 108.5q16 51.5 49 90.5q33 39 82 62.5q49 23.5 115 23.5q73 0 114 -28.5q41 -28.5 41 -82.5q0 -49 -27 -79.5q-27 -30.5 -69.5 -48q-42.5 -17.5 -94.5 -25.5q-52 -8 -102 -11l0 -11q0 -36 21 -54q21 -18 68 -18q45 0 82.5 10.5q37.5 10.5 65.5 24.5zM265 354q-27 0 -46 -10.5q-19 -10.5 -32.5 -28q-13.5 -17.5 -22 -40.5q-8.5 -23 -12.5 -47q33 2 63 6.5q30 4.5 52.5 13.5q22.5 9 36 23q13.5 14 13.5 37q0 22 -14.5 34q-14.5 12 -37.5 12zt0 0zM407 634l56 -146h-101l-36 85h-10l-83 -85h-105l130 146z" />
<glyph unicode="&#283;" horiz-adv-x="449" d="M383 35q-14 -8 -35 -15.5q-21 -7.5 -45.5 -14.5q-24.5 -7 -51 -11q-26.5 -4 -52.5 -4q-38 0 -70 8.5q-32 8.5 -56 27.5q-24 19 -37.5 49q-13.5 30 -13.5 73q0 57 16 108.5q16 51.5 49 90.5q33 39 82 62.5q49 23.5 115 23.5q73 0 114 -28.5q41 -28.5 41 -82.5q0 -49 -27 -79.5q-27 -30.5 -69.5 -48q-42.5 -17.5 -94.5 -25.5q-52 -8 -102 -11l0 -11q0 -36 21 -54q21 -18 68 -18q45 0 82.5 10.5q37.5 10.5 65.5 24.5zM265 354q-27 0 -46 -10.5q-19 -10.5 -32.5 -28q-13.5 -17.5 -22 -40.5q-8.5 -23 -12.5 -47q33 2 63 6.5q30 4.5 52.5 13.5q22.5 9 36 23q13.5 14 13.5 37q0 22 -14.5 34q-14.5 12 -37.5 12zt0 0zM220 488l-59 146h103l39 -85h10l79 85h104l-125 -146z" />
<glyph unicode="&#235;" horiz-adv-x="449" d="M383 35q-14 -8 -35 -15.5q-21 -7.5 -45.5 -14.5q-24.5 -7 -51 -11q-26.5 -4 -52.5 -4q-38 0 -70 8.5q-32 8.5 -56 27.5q-24 19 -37.5 49q-13.5 30 -13.5 73q0 57 16 108.5q16 51.5 49 90.5q33 39 82 62.5q49 23.5 115 23.5q73 0 114 -28.5q41 -28.5 41 -82.5q0 -49 -27 -79.5q-27 -30.5 -69.5 -48q-42.5 -17.5 -94.5 -25.5q-52 -8 -102 -11l0 -11q0 -36 21 -54q21 -18 68 -18q45 0 82.5 10.5q37.5 10.5 65.5 24.5zM265 354q-27 0 -46 -10.5q-19 -10.5 -32.5 -28q-13.5 -17.5 -22 -40.5q-8.5 -23 -12.5 -47q33 2 63 6.5q30 4.5 52.5 13.5q22.5 9 36 23q13.5 14 13.5 37q0 22 -14.5 34q-14.5 12 -37.5 12zt0 0zM272 511h-119l21 97h119zM456 511h-119l20 97l119 0z" />
<glyph unicode="&#275;" horiz-adv-x="449" d="M383 35q-14 -8 -35 -15.5q-21 -7.5 -45.5 -14.5q-24.5 -7 -51 -11q-26.5 -4 -52.5 -4q-38 0 -70 8.5q-32 8.5 -56 27.5q-24 19 -37.5 49q-13.5 30 -13.5 73q0 57 16 108.5q16 51.5 49 90.5q33 39 82 62.5q49 23.5 115 23.5q73 0 114 -28.5q41 -28.5 41 -82.5q0 -49 -27 -79.5q-27 -30.5 -69.5 -48q-42.5 -17.5 -94.5 -25.5q-52 -8 -102 -11l0 -11q0 -36 21 -54q21 -18 68 -18q45 0 82.5 10.5q37.5 10.5 65.5 24.5zM265 354q-27 0 -46 -10.5q-19 -10.5 -32.5 -28q-13.5 -17.5 -22 -40.5q-8.5 -23 -12.5 -47q33 2 63 6.5q30 4.5 52.5 13.5q22.5 9 36 23q13.5 14 13.5 37q0 22 -14.5 34q-14.5 12 -37.5 12zt0 0zM450 514h-293l19 91l293 0z" />
<glyph unicode="&#281;" horiz-adv-x="449" d="M383 35q-7 -4 -16 -8q-10 -6 -23 -15q-24 -15 -42 -38q-11 -14 -18 -30q-7 -16 -7 -35q0 -17 7.5 -29.5q7.5 -12.5 24.5 -12.5q11 0 22 1.5q11 1.5 22 5.5l8 -63q-21 -9 -51.5 -14.5q-30.5 -5.5 -59.5 -5.5q-17 0 -34.5 3.5q-17.5 3.5 -31 12q-13.5 8.5 -22 22.5q-8.5 14 -8.5 36q0 65 63 114q8 7 17 13q-18 -2 -35 -2q-38 0 -70 8.5q-32 8.5 -56 27.5q-24 19 -37.5 49q-13.5 30 -13.5 73q0 57 16 108.5q16 51.5 49 90.5q33 39 82 62.5q49 23.5 115 23.5q73 0 114 -28.5q41 -28.5 41 -82.5q0 -49 -27 -79.5q-27 -30.5 -69.5 -48q-42.5 -17.5 -94.5 -25.5q-52 -8 -102 -11l0 -11q0 -36 21 -54q21 -18 68 -18q45 0 82.5 10.5q37.5 10.5 65.5 24.5zM265 354q-27 0 -46 -10.5q-19 -10.5 -32.5 -28q-13.5 -17.5 -22 -40.5q-8.5 -23 -12.5 -47q33 2 63 6.5q30 4.5 52.5 13.5q22.5 9 36 23q13.5 14 13.5 37q0 22 -14.5 34t-37.5 12z" />
<glyph unicode="&#287;" horiz-adv-x="466" d="M267 433q26 0 52 -5q26 -5 49 -19h8h91l-93 -420q-12 -55 -34.5 -93.5q-22.5 -38.5 -54.5 -62.5q-32 -24 -72.5 -35q-40.5 -11 -87.5 -11q-37 0 -75 5.5q-38 5.5 -61 13.5l34 88q15 -6 42.5 -12q27.5 -6 62.5 -6q45 0 78 20q33 20 44 71l11 52q-44 -29 -103 -29q-65 0 -100 39.5q-35 39.5 -35 111.5q0 76 20 131q20 55 54 91q34 36 78 53q44 17 92 17zt0 0zM211 69q35 0 63 20l54 257q-11 5 -21 7q-10 2 -19 2q-69 0 -104.5 -53.5q-35.5 -53.5 -35.5 -142.5q0 -40 14 -65q14 -25 49 -25zt0 0zM302 480q-64 0 -95.5 27.5q-31.5 27.5 -42.5 84.5l88 24q4 -29 18.5 -43.5q14.5 -14.5 48.5 -14.5q30 0 48 14.5q18 14.5 35 43.5l86 -24q-23 -57 -66.5 -84.5t-119.5 -27.5z" />
<glyph unicode="&#289;" horiz-adv-x="466" d="M267 433q26 0 52 -5q26 -5 49 -19h8h91l-93 -420q-12 -55 -34.5 -93.5q-22.5 -38.5 -54.5 -62.5q-32 -24 -72.5 -35q-40.5 -11 -87.5 -11q-37 0 -75 5.5q-38 5.5 -61 13.5l34 88q15 -6 42.5 -12q27.5 -6 62.5 -6q45 0 78 20q33 20 44 71l11 52q-44 -29 -103 -29q-65 0 -100 39.5q-35 39.5 -35 111.5q0 76 20 131q20 55 54 91q34 36 78 53q44 17 92 17zt0 0zM211 69q35 0 63 20l54 257q-11 5 -21 7q-10 2 -19 2q-69 0 -104.5 -53.5q-35.5 -53.5 -35.5 -142.5q0 -40 14 -65q14 -25 49 -25zt0 0zM362 511h-124l21 97l124 0z" />
<glyph unicode="&#285;" horiz-adv-x="466" d="M267 433q26 0 52 -5q26 -5 49 -19h8h91l-93 -420q-12 -55 -34.5 -93.5q-22.5 -38.5 -54.5 -62.5q-32 -24 -72.5 -35q-40.5 -11 -87.5 -11q-37 0 -75 5.5q-38 5.5 -61 13.5l34 88q15 -6 42.5 -12q27.5 -6 62.5 -6q45 0 78 20q33 20 44 71l11 52q-44 -29 -103 -29q-65 0 -100 39.5q-35 39.5 -35 111.5q0 76 20 131q20 55 54 91q34 36 78 53q44 17 92 17zt0 0zM211 69q35 0 63 20l54 257q-11 5 -21 7q-10 2 -19 2q-69 0 -104.5 -53.5q-35.5 -53.5 -35.5 -142.5q0 -40 14 -65q14 -25 49 -25zt0 0zM411 634l56 -146h-101l-36 85h-10l-83 -85h-105l130 146z" />
<glyph unicode="&#295;" horiz-adv-x="458" d="M3 0l101 477h-60l17 82h61l14 67l126 16l-18 -83h97l-18 -82h-97l-17 -81q27 18 56.5 27.5q29.5 9.5 58.5 9.5q61 0 88 -26q27 -26 27 -76q0 -13 -2 -27q-2 -14 -5 -30l-58 -274h-123l56 259l4 22q2 11 2 22q0 17 -7.5 28.5q-7.5 11.5 -30.5 11.5q-45 0 -87 -48l-63 -295z" />
<glyph unicode="&#293;" horiz-adv-x="458" d="M3 0l133 626l126 16l-53 -246q27 18 56.5 27.5q29.5 9.5 58.5 9.5q61 0 88 -26q27 -26 27 -76q0 -13 -2 -27q-2 -14 -5 -30l-58 -274h-123l56 259q2 11 4 22q2 11 2 22q0 17 -7.5 28.5q-7.5 11.5 -30.5 11.5q-45 0 -87 -48l-63 -295zM325 843l56 -146h-101l-36 85h-10l-83 -85h-105l130 146z" />
<glyph unicode="&#305;" horiz-adv-x="215" d="M3 0l90 423h122l-90 -423z" />
<glyph unicode="&#237;" horiz-adv-x="215" d="M340 634l-135 -146h-110l117 146zM3 0l90 423h122l-90 -423z" />
<glyph unicode="&#236;" horiz-adv-x="215" d="M172 634l64 -146h-102l-79 146zM3 0l90 423h122l-90 -423z" />
<glyph unicode="&#238;" horiz-adv-x="215" d="M268 639l52 -146h-93l-36 86h-10l-78 -86h-96l117 146zM3 0l90 423h122l-90 -423z" />
<glyph unicode="&#239;" horiz-adv-x="215" d="M143 512h-105l20 96h105zM301 512h-104l20 96h104zM3 0l90 423h122l-90 -423z" />
<glyph unicode="&#297;" horiz-adv-x="215" d="M324 547q-17 -17 -45 -31q-28 -14 -57 -14q-17 0 -29.5 4.5q-12.5 4.5 -24 10.5q-11.5 6 -22 10.5q-10.5 4.5 -23.5 4.5q-18 0 -33.5 -7q-15.5 -7 -30.5 -18l-30 68q21 19 47.5 31q26.5 12 55.5 12q16 0 29 -4.5q13 -4.5 24 -10q11 -5.5 22 -10q11 -4.5 24 -4.5q18 0 32.5 7q14.5 7 28.5 18zM3 0l90 423h122l-90 -423z" />
<glyph unicode="&#299;" horiz-adv-x="215" d="M310 514h-293l19 91h293zM3 0l90 423h122l-90 -423z" />
<glyph unicode="&#303;" horiz-adv-x="215" d="M-4 -209q-99 0 -99 73q0 27 7 47.5q7 20.5 21 37q14 16.5 35 29.5q19 12 43 22l90 423h122l-90 -423q-13 -4 -31.5 -12q-18.5 -8 -32.5 -18q-24 -17 -34 -35.5q-10 -18.5 -10 -37.5q0 -30 35 -30q11 0 22.5 1.5q11.5 1.5 21.5 5.5l8 -63q-20 -9 -50 -14.5q-30 -5.5 -58 -5.5zt0 0zM111 511l20 97h125l-21 -97z" />
<glyph unicode="&#309;" horiz-adv-x="215" d="M-86 -126h10q32 0 46 17q14 17 23 60l101 472h121l-97 -457q-11 -52 -28.5 -86.5q-17.5 -34.5 -44 -55q-26.5 -20.5 -62 -29q-35.5 -8.5 -81.5 -8.5h-7zM278 634l56 -146h-101l-36 85h-10l-83 -85h-105l130 146z" />
<glyph unicode="&#312;" horiz-adv-x="438" d="M3 0l90 423h121l-34 -160h30l152 160h134l-205 -203l121 -220h-135l-89 172h-28l-36 -172z" />
<glyph unicode="&#314;" horiz-adv-x="229" d="M424 842l-154 -146h-114l131 146zM172 -3q-5 -1 -10 -1q-5 -1 -11 -1q-6 0 -11 0q-59 0 -86.5 22q-27.5 22 -27.5 69q0 23 6 50l104 490l125 16l-106 -498q-6 -26 -6 -37q0 -14 9 -19.5q9 -5.5 32 -6.5z" />
<glyph unicode="&#318;" horiz-adv-x="340" d="M347 479h-80l53 155h117zM172 -3q-5 -1 -10 -1q-5 -1 -11 -1q-6 0 -11 0q-59 0 -86.5 22q-27.5 22 -27.5 69q0 23 6 50l104 490l125 16l-106 -498q-6 -26 -6 -37q0 -14 9 -19.5q9 -5.5 32 -6.5z" />
<glyph unicode="&#322;" horiz-adv-x="242" d="M172 -3q-5 -1 -10 -1q-5 -1 -11 -1h-11q-59 0 -86.5 22q-27.5 22 -27.5 69q0 23 6 50l17 82l-72 -41l20 97l73 41l66 311l125 16l-53 -248l76 43l-20 -96l-77 -44l-32 -153q-6 -26 -6 -37q0 -14 9 -19.5q9 -5.5 32 -6.5z" />
<glyph unicode="&#324;" horiz-adv-x="458" d="M3 0l55 257l25 166h98v-48q31 27 69 42.5q38 15.5 74 15.5q61 0 88 -26q27 -26 27 -76q0 -13 -2 -27q-2 -14 -5 -30l-58 -274h-123l56 259q2 11 4 22q2 11 2 22q0 17 -7.5 28.5q-7.5 11.5 -30.5 11.5q-45 0 -87 -47l-63 -296zM469 634l-154 -146h-114l131 146z" />
<glyph unicode="&#328;" horiz-adv-x="458" d="M3 0l55 257l25 166h98v-48q31 27 69 42.5q38 15.5 74 15.5q61 0 88 -26q27 -26 27 -76q0 -13 -2 -27q-2 -14 -5 -30l-58 -274h-123l56 259q2 11 4 22q2 11 2 22q0 17 -7.5 28.5q-7.5 11.5 -30.5 11.5q-45 0 -87 -47l-63 -296zM213 488l-59 146h103l39 -85h10l79 85h104l-125 -146z" />
<glyph unicode="&#241;" horiz-adv-x="458" d="M3 0l55 257l25 166h98v-48q31 27 69 42.5q38 15.5 74 15.5q61 0 88 -26q27 -26 27 -76q0 -13 -2 -27q-2 -14 -5 -30l-58 -274h-123l56 259q2 11 4 22q2 11 2 22q0 17 -7.5 28.5q-7.5 11.5 -30.5 11.5q-45 0 -87 -47l-63 -296zM472 547q-24 -20 -54 -33.5q-30 -13.5 -64 -13.5q-22 0 -39 5q-17 5 -32.5 11.5q-15.5 6.5 -30.5 11.5q-15 5 -32 5q-23 0 -42 -8q-19 -8 -37 -20l-30 68q24 20 54 33q30 13 64 13q22 0 39 -5q17 -5 32.5 -11q15.5 -6 30.5 -11q15 -5 32 -5q23 0 42.5 8q19.5 8 36.5 20z" />
<glyph unicode="&#331;" horiz-adv-x="458" d="M374 0l-6 -26q-11 -52 -28.5 -86.5q-17.5 -34.5 -44 -55q-26.5 -20.5 -62 -29q-35.5 -8.5 -81.5 -8.5h-7l19 87h10q32 0 46 17q14 17 23 61l8 40l56 259l4 22q2 11 2 22q0 17 -7.5 28.5q-7.5 11.5 -30.5 11.5q-45 0 -87 -47l-63 -296h-122l55 257l25 166h98v-48q31 27 69 42.5q38 15.5 74 15.5q61 0 88 -26q27 -26 27 -76q0 -13 -2 -27q-2 -14 -5 -30z" />
<glyph unicode="&#243;" horiz-adv-x="476" d="M188 -10q-89 0 -128 41q-39 41 -39 111q0 66 18.5 119.5q18.5 53.5 53 92q34.5 38.5 84.5 59q50 20.5 113 20.5q89 0 128.5 -42q39.5 -42 39.5 -112q0 -66 -18.5 -119.5q-18.5 -53.5 -53.5 -91q-35 -37.5 -85 -58q-50 -20.5 -113 -20.5zt0 0zM206 72q27 0 50.5 14q23.5 14 41 40q17.5 26 27 63q9.5 37 9.5 84q0 32 -15 55.5q-15 23.5 -47 23.5q-27 0 -50 -14q-23 -14 -40 -40.5q-17 -26.5 -26.5 -64q-9.5 -37.5 -9.5 -83.5q0 -33 14.5 -55.5q14.5 -22.5 45.5 -22.5zt0 0zM506 634l-154 -146h-114l131 146z" />
<glyph unicode="&#242;" horiz-adv-x="476" d="M188 -10q-89 0 -128 41q-39 41 -39 111q0 66 18.5 119.5q18.5 53.5 53 92q34.5 38.5 84.5 59q50 20.5 113 20.5q89 0 128.5 -42q39.5 -42 39.5 -112q0 -66 -18.5 -119.5q-18.5 -53.5 -53.5 -91q-35 -37.5 -85 -58q-50 -20.5 -113 -20.5zt0 0zM206 72q27 0 50.5 14q23.5 14 41 40q17.5 26 27 63q9.5 37 9.5 84q0 32 -15 55.5q-15 23.5 -47 23.5q-27 0 -50 -14q-23 -14 -40 -40.5q-17 -26.5 -26.5 -64q-9.5 -37.5 -9.5 -83.5q0 -33 14.5 -55.5q14.5 -22.5 45.5 -22.5zt0 0zM290 634l72 -146h-107l-97 146z" />
<glyph unicode="&#244;" horiz-adv-x="476" d="M188 -10q-89 0 -128 41q-39 41 -39 111q0 66 18.5 119.5q18.5 53.5 53 92q34.5 38.5 84.5 59q50 20.5 113 20.5q89 0 128.5 -42q39.5 -42 39.5 -112q0 -66 -18.5 -119.5q-18.5 -53.5 -53.5 -91q-35 -37.5 -85 -58q-50 -20.5 -113 -20.5zt0 0zM206 72q27 0 50.5 14q23.5 14 41 40q17.5 26 27 63q9.5 37 9.5 84q0 32 -15 55.5q-15 23.5 -47 23.5q-27 0 -50 -14q-23 -14 -40 -40.5q-17 -26.5 -26.5 -64q-9.5 -37.5 -9.5 -83.5q0 -33 14.5 -55.5q14.5 -22.5 45.5 -22.5zt0 0zM414 634l56 -146h-101l-36 85h-10l-83 -85h-105l130 146z" />
<glyph unicode="&#246;" horiz-adv-x="476" d="M188 -10q-89 0 -128 41q-39 41 -39 111q0 66 18.5 119.5q18.5 53.5 53 92q34.5 38.5 84.5 59q50 20.5 113 20.5q89 0 128.5 -42q39.5 -42 39.5 -112q0 -66 -18.5 -119.5q-18.5 -53.5 -53.5 -91q-35 -37.5 -85 -58q-50 -20.5 -113 -20.5zt0 0zM206 72q27 0 50.5 14q23.5 14 41 40q17.5 26 27 63q9.5 37 9.5 84q0 32 -15 55.5q-15 23.5 -47 23.5q-27 0 -50 -14q-23 -14 -40 -40.5q-17 -26.5 -26.5 -64q-9.5 -37.5 -9.5 -83.5q0 -33 14.5 -55.5q14.5 -22.5 45.5 -22.5zt0 0zM273 511h-119l21 97h119zM457 511h-119l20 97l119 0z" />
<glyph unicode="&#245;" horiz-adv-x="476" d="M188 -10q-89 0 -128 41q-39 41 -39 111q0 66 18.5 119.5q18.5 53.5 53 92q34.5 38.5 84.5 59q50 20.5 113 20.5q89 0 128.5 -42q39.5 -42 39.5 -112q0 -66 -18.5 -119.5q-18.5 -53.5 -53.5 -91q-35 -37.5 -85 -58q-50 -20.5 -113 -20.5zt0 0zM206 72q27 0 50.5 14q23.5 14 41 40q17.5 26 27 63q9.5 37 9.5 84q0 32 -15 55.5q-15 23.5 -47 23.5q-27 0 -50 -14q-23 -14 -40 -40.5q-17 -26.5 -26.5 -64q-9.5 -37.5 -9.5 -83.5q0 -33 14.5 -55.5q14.5 -22.5 45.5 -22.5zt0 0zM484 547q-24 -20 -54 -33.5q-30 -13.5 -64 -13.5q-22 0 -39 5q-17 5 -32.5 11.5q-15.5 6.5 -30.5 11.5q-15 5 -32 5q-23 0 -42 -8q-19 -8 -37 -20l-30 68q24 20 54 33q30 13 64 13q22 0 39 -5q17 -5 32.5 -11q15.5 -6 30.5 -11q15 -5 32 -5q23 0 42.5 8q19.5 8 36.5 20z" />
<glyph unicode="&#333;" horiz-adv-x="476" d="M188 -10q-89 0 -128 41q-39 41 -39 111q0 66 18.5 119.5q18.5 53.5 53 92q34.5 38.5 84.5 59q50 20.5 113 20.5q89 0 128.5 -42q39.5 -42 39.5 -112q0 -66 -18.5 -119.5q-18.5 -53.5 -53.5 -91q-35 -37.5 -85 -58q-50 -20.5 -113 -20.5zt0 0zM206 72q27 0 50.5 14q23.5 14 41 40q17.5 26 27 63q9.5 37 9.5 84q0 32 -15 55.5q-15 23.5 -47 23.5q-27 0 -50 -14q-23 -14 -40 -40.5q-17 -26.5 -26.5 -64q-9.5 -37.5 -9.5 -83.5q0 -33 14.5 -55.5q14.5 -22.5 45.5 -22.5zt0 0zM460 514h-293l19 91l293 0z" />
<glyph unicode="&#248;" horiz-adv-x="480" d="M-30 11l63 60q-11 29 -11 71q0 66 15.5 120q15.5 54 48.5 92.5q33 38.5 85.5 59q52.5 20.5 126.5 20.5q53 0 89 -17l62 60l65 -66l-64 -62q6 -15 8.5 -32.5q2.5 -17.5 2.5 -37.5q0 -66 -15.5 -120q-15.5 -54 -49 -92q-33.5 -38 -86 -58.5q-52.5 -20.5 -125.5 -20.5q-28 0 -50 4q-22 4 -39 12l-61 -59zM207 66q25 0 49.5 10.5q24.5 10.5 43.5 32q19 21.5 30.5 55q11.5 33.5 11.5 78.5v9l-175 -172q5 -6 16.5 -9.5q11.5 -3.5 23.5 -3.5zt0 0zM276 356q-25 0 -49.5 -10.5q-24.5 -10.5 -43.5 -32q-19 -21.5 -30.5 -54.5q-11.5 -33 -11.5 -78v-9l175 171q-5 6 -16.5 9.5t-23.5 3.5z" />
<glyph unicode="&#341;" horiz-adv-x="343" d="M3 0l55 257l25 166h98v-65q27 35 62.5 55q35.5 20 80.5 20q21 0 36 -3q15 -3 25 -8l-42 -97q-20 10 -46 10q-70 0 -115 -71l-57 -264zM428 634l-154 -146h-114l131 146z" />
<glyph unicode="&#345;" horiz-adv-x="343" d="M3 0l55 257l25 166h98v-65q27 35 62.5 55q35.5 20 80.5 20q21 0 36 -3q15 -3 25 -8l-42 -97q-20 10 -46 10q-70 0 -115 -71l-57 -264zM155 488l-59 146h103l39 -85h10l79 85h104l-125 -146z" />
<glyph unicode="&#347;" horiz-adv-x="394" d="M41 106q25 -13 56.5 -21q31.5 -8 65.5 -8q9 0 22 1q13 1 24 4.5q11 3.5 19 11.5q8 8 8 22q0 17 -11.5 26q-11.5 9 -35.5 20q-11 5 -30.5 12.5q-19.5 7.5 -29.5 12.5q-40 17 -63 39.5q-23 22.5 -23 59.5q0 40 17.5 68q17.5 28 46.5 45.5q29 17.5 65.5 25.5q36.5 8 75.5 8q45 0 82 -8.5q37 -8.5 57 -17.5l-35 -86q-25 13 -51.5 20q-26.5 7 -61.5 7q-9 0 -22 -1q-13 -1 -25.5 -4.5q-12.5 -3.5 -21 -11.5q-8.5 -8 -8.5 -22q0 -16 12 -24.5q12 -8.5 34 -17.5q6 -3 15 -6.5q9 -3.5 18.5 -7q9.5 -3.5 18.5 -7q9 -3.5 14 -5.5q35 -14 58.5 -37.5q23.5 -23.5 23.5 -60.5q0 -42 -17 -71q-17 -29 -45 -47.5q-28 -18.5 -65 -26.5q-37 -8 -77 -8q-51 0 -84.5 8.5q-33.5 8.5 -65.5 22.5zM451 634l-154 -146h-114l131 146z" />
<glyph unicode="&#353;" horiz-adv-x="394" d="M41 106q25 -13 56.5 -21q31.5 -8 65.5 -8q9 0 22 1q13 1 24 4.5q11 3.5 19 11.5q8 8 8 22q0 17 -11.5 26q-11.5 9 -35.5 20q-11 5 -30.5 12.5q-19.5 7.5 -29.5 12.5q-40 17 -63 39.5q-23 22.5 -23 59.5q0 40 17.5 68q17.5 28 46.5 45.5q29 17.5 65.5 25.5q36.5 8 75.5 8q45 0 82 -8.5q37 -8.5 57 -17.5l-35 -86q-25 13 -51.5 20q-26.5 7 -61.5 7q-9 0 -22 -1q-13 -1 -25.5 -4.5q-12.5 -3.5 -21 -11.5q-8.5 -8 -8.5 -22q0 -16 12 -24.5q12 -8.5 34 -17.5q6 -3 15 -6.5q9 -3.5 18.5 -7q9.5 -3.5 18.5 -7q9 -3.5 14 -5.5q35 -14 58.5 -37.5q23.5 -23.5 23.5 -60.5q0 -42 -17 -71q-17 -29 -45 -47.5q-28 -18.5 -65 -26.5q-37 -8 -77 -8q-51 0 -84.5 8.5q-33.5 8.5 -65.5 22.5zM190 488l-59 146h103l39 -85h10l79 85h104l-125 -146z" />
<glyph unicode="&#351;" horiz-adv-x="394" d="M41 106q25 -13 56.5 -21q31.5 -8 65.5 -8q9 0 22 1q13 1 24 4.5q11 3.5 19 11.5q8 8 8 22q0 17 -11.5 26q-11.5 9 -35.5 20q-11 5 -30.5 12.5q-19.5 7.5 -29.5 12.5q-40 17 -63 39.5q-23 22.5 -23 59.5q0 40 17.5 68q17.5 28 46.5 45.5q29 17.5 65.5 25.5q36.5 8 75.5 8q45 0 82 -8.5q37 -8.5 57 -17.5l-35 -86q-25 13 -51.5 20q-26.5 7 -61.5 7q-9 0 -22 -1q-13 -1 -25.5 -4.5q-12.5 -3.5 -21 -11.5q-8.5 -8 -8.5 -22q0 -16 12 -24.5q12 -8.5 34 -17.5q6 -3 15 -6.5q9 -3.5 18.5 -7q9.5 -3.5 18.5 -7q9 -3.5 14 -5.5q35 -14 58.5 -37.5q23.5 -23.5 23.5 -60.5q0 -42 -17 -71q-17 -29 -45 -47.5q-28 -18.5 -65 -26.5q-37 -8 -77 -8q-51 0 -84.5 8.5q-33.5 8.5 -65.5 22.5zM44 -126q14 -5 26 -7.5q12 -2.5 27 -2.5q25 0 40.5 8.5q15.5 8.5 15.5 32.5q0 18 -16 24q-16 6 -52 12l35 58q72 -6 109 -25q37 -19 37 -62q0 -57 -38.5 -89.5q-38.5 -32.5 -130.5 -32.5q-27 0 -53 5q-26 5 -41 11z" />
<glyph unicode="&#349;" horiz-adv-x="394" d="M41 106q25 -13 56.5 -21q31.5 -8 65.5 -8q9 0 22 1q13 1 24 4.5q11 3.5 19 11.5q8 8 8 22q0 17 -11.5 26q-11.5 9 -35.5 20q-11 5 -30.5 12.5q-19.5 7.5 -29.5 12.5q-40 17 -63 39.5q-23 22.5 -23 59.5q0 40 17.5 68q17.5 28 46.5 45.5q29 17.5 65.5 25.5q36.5 8 75.5 8q45 0 82 -8.5q37 -8.5 57 -17.5l-35 -86q-25 13 -51.5 20q-26.5 7 -61.5 7q-9 0 -22 -1q-13 -1 -25.5 -4.5q-12.5 -3.5 -21 -11.5q-8.5 -8 -8.5 -22q0 -16 12 -24.5q12 -8.5 34 -17.5q6 -3 15 -6.5q9 -3.5 18.5 -7q9.5 -3.5 18.5 -7q9 -3.5 14 -5.5q35 -14 58.5 -37.5q23.5 -23.5 23.5 -60.5q0 -42 -17 -71q-17 -29 -45 -47.5q-28 -18.5 -65 -26.5q-37 -8 -77 -8q-51 0 -84.5 8.5q-33.5 8.5 -65.5 22.5zM370 634l56 -146h-101l-36 85h-10l-83 -85h-105l130 146z" />
<glyph unicode="&#223;" horiz-adv-x="517" d="M208 101q22 -11 50 -18q28 -7 62 -7q64 0 66 38q1 17 -8.5 27q-9.5 10 -32.5 21q-13 7 -27 14.5q-14 7.5 -25 12.5q-39 19 -55.5 42.5q-16.5 23.5 -14.5 55.5q2 44 26.5 73q24.5 29 81.5 57q34 17 51.5 35q17.5 18 17.5 45q0 25 -19.5 36.5q-19.5 11.5 -41.5 11.5q-32 0 -53.5 -9.5q-21.5 -9.5 -36 -27q-14.5 -17.5 -24 -42.5q-9.5 -25 -15.5 -55l-88 -411h-121l86 402q25 123 90.5 177.5q65.5 54.5 178.5 54.5q31 0 61 -8q30 -8 53.5 -24q23.5 -16 38 -40q14.5 -24 14.5 -56q0 -33 -13 -57q-13 -24 -33 -41.5q-20 -17.5 -44.5 -30.5q-24.5 -13 -47.5 -25q-20 -10 -36 -20q-16 -10 -17 -24q-1 -14 10 -22.5q11 -8.5 29 -17.5q10 -4 26.5 -12.5q16.5 -8.5 28.5 -15.5q33 -17 52.5 -43.5q19.5 -26.5 17.5 -63.5q-4 -72 -51.5 -107.5q-47.5 -35.5 -135.5 -35.5q-41 0 -74 8q-33 8 -62 23z" />
<glyph unicode="&#357;" horiz-adv-x="371" d="M402 479h-80l53 155h120zM312 22q-35 -18 -67.5 -25q-32.5 -7 -72.5 -7q-119 0 -119 103q0 10 1.5 21q1.5 11 3.5 23l42 198h-70l17 78l70 8l18 81l126 21l-21 -100h140l-19 -87h-139l-36 -170q-2 -11 -4 -22q-2 -11 -2 -20q0 -18 9 -29q9 -11 35 -11q25 0 46.5 4.5q21.5 4.5 41.5 12.5z" />
<glyph unicode="&#250;" horiz-adv-x="459" d="M211 423l-56 -259q-2 -11 -4 -23q-2 -12 -2 -22q0 -17 7.5 -28q7.5 -11 30.5 -11q45 0 86 47l64 296h122l-55 -257l-25 -166h-98v48q-32 -28 -70 -43q-38 -15 -73 -15q-61 0 -88 26q-27 26 -27 76q0 13 2.5 29q2.5 16 4.5 28l58 274zM498 634l-154 -146h-114l131 146z" />
<glyph unicode="&#249;" horiz-adv-x="459" d="M211 423l-56 -259q-2 -11 -4 -23q-2 -12 -2 -22q0 -17 7.5 -28q7.5 -11 30.5 -11q45 0 86 47l64 296h122l-55 -257l-25 -166h-98v48q-32 -28 -70 -43q-38 -15 -73 -15q-61 0 -88 26q-27 26 -27 76q0 13 2.5 29q2.5 16 4.5 28l58 274zM270 634l72 -146h-107l-97 146z" />
<glyph unicode="&#251;" horiz-adv-x="459" d="M211 423l-56 -259q-2 -11 -4 -23q-2 -12 -2 -22q0 -17 7.5 -28q7.5 -11 30.5 -11q45 0 86 47l64 296h122l-55 -257l-25 -166h-98v48q-32 -28 -70 -43q-38 -15 -73 -15q-61 0 -88 26q-27 26 -27 76q0 13 2.5 29q2.5 16 4.5 28l58 274zM401 634l56 -146h-101l-36 85h-10l-83 -85h-105l130 146z" />
<glyph unicode="&#252;" horiz-adv-x="459" d="M211 423l-56 -259q-2 -11 -4 -23q-2 -12 -2 -22q0 -17 7.5 -28q7.5 -11 30.5 -11q45 0 86 47l64 296h122l-55 -257l-25 -166h-98v48q-32 -28 -70 -43q-38 -15 -73 -15q-61 0 -88 26q-27 26 -27 76q0 13 2.5 29q2.5 16 4.5 28l58 274zM262 511h-119l21 97h119zM446 511h-119l20 97l119 0z" />
<glyph unicode="&#361;" horiz-adv-x="459" d="M211 423l-56 -259q-2 -11 -4 -23q-2 -12 -2 -22q0 -17 7.5 -28q7.5 -11 30.5 -11q45 0 86 47l64 296h122l-55 -257l-25 -166h-98v48q-32 -28 -70 -43q-38 -15 -73 -15q-61 0 -88 26q-27 26 -27 76q0 13 2.5 29q2.5 16 4.5 28l58 274zM468 547q-24 -20 -54 -33.5q-30 -13.5 -64 -13.5q-22 0 -39 5q-17 5 -32.5 11.5q-15.5 6.5 -30.5 11.5q-15 5 -32 5q-23 0 -42 -8q-19 -8 -37 -20l-30 68q24 20 54 33q30 13 64 13q22 0 39 -5q17 -5 32.5 -11q15.5 -6 30.5 -11q15 -5 32 -5q23 0 42.5 8q19.5 8 36.5 20z" />
<glyph unicode="&#365;" horiz-adv-x="459" d="M211 423l-56 -259q-2 -11 -4 -23q-2 -12 -2 -22q0 -17 7.5 -28q7.5 -11 30.5 -11q45 0 86 47l64 296h122l-55 -257l-25 -166h-98v48q-32 -28 -70 -43q-38 -15 -73 -15q-61 0 -88 26q-27 26 -27 76q0 13 2.5 29q2.5 16 4.5 28l58 274zM284 480q-64 0 -95.5 27.5q-31.5 27.5 -42.5 84.5l88 24q4 -29 18.5 -43.5q14.5 -14.5 48.5 -14.5q30 0 48 14.5q18 14.5 35 43.5l86 -24q-23 -57 -66.5 -84.5t-119.5 -27.5z" />
<glyph unicode="&#363;" horiz-adv-x="459" d="M211 423l-56 -259q-2 -11 -4 -23q-2 -12 -2 -22q0 -17 7.5 -28q7.5 -11 30.5 -11q45 0 86 47l64 296h122l-55 -257l-25 -166h-98v48q-32 -28 -70 -43q-38 -15 -73 -15q-61 0 -88 26q-27 26 -27 76q0 13 2.5 29q2.5 16 4.5 28l58 274zM442 514h-293l19 91l293 0z" />
<glyph unicode="&#371;" horiz-adv-x="459" d="M211 423l-56 -259q-2 -11 -4 -23q-2 -12 -2 -22q0 -17 7.5 -28q7.5 -11 30.5 -11q45 0 86 47l64 296h122l-55 -257l-25 -166h-98v48q-32 -28 -70 -43q-38 -15 -73 -15q-61 0 -88 26q-27 26 -27 76q0 13 2.5 29q2.5 16 4.5 28l58 274zM360 -189q-20 -9 -50 -14.5q-30 -5.5 -58 -5.5q-99 0 -99 73q0 20 4 38q4 18 17 35q13 17 37 33q24 16 63 33q26 11 52 18.5q26 7.5 49 11.5l4 -33q-17 -8 -33 -16q-16 -8 -30 -18q-26 -18 -34.5 -33.5q-8.5 -15.5 -8.5 -35.5q0 -30 35 -30q11 0 22.5 1.5q11.5 1.5 21.5 5.5z" />
<glyph unicode="&#253;" horiz-adv-x="426" d="M-37 -126q9 -2 18 -2q9 0 16 0q30 0 47.5 9.5q17.5 9.5 28.5 21.5q13 14 29 42q16 28 31 55l-89 423h121l44 -290h9l134 290h120l-245 -459q-21 -40 -43 -72.5q-22 -32.5 -49 -56q-27 -23.5 -61 -36q-34 -12.5 -79 -12.5q-15 0 -31 1q-16 1 -30 6zM494 634l-154 -146h-114l131 146z" />
<glyph unicode="&#378;" horiz-adv-x="424" d="M-17 0l15 70l281 266h-217l20 87h361l-15 -70l-282 -266h228l-19 -87zM477 634l-154 -146h-114l131 146z" />
<glyph unicode="&#382;" horiz-adv-x="424" d="M-17 0l15 70l281 266h-217l20 87h361l-15 -70l-282 -266h228l-19 -87zM192 488l-59 146h103l39 -85h10l79 85h104l-125 -146z" />
<glyph unicode="&#380;" horiz-adv-x="424" d="M-17 0l15 70l281 266h-217l20 87h361l-15 -70l-282 -266h228l-19 -87zM333 511h-124l21 97l124 0z" />
<glyph unicode="&#254;" horiz-adv-x="465" d="M210 406q43 27 102 27q61 0 97 -41q36 -41 36 -110q0 -55 -15.5 -107.5q-15.5 -52.5 -47 -93q-31.5 -40.5 -79 -65q-47.5 -24.5 -111.5 -24.5q-24 0 -48 4q-10 2 -19 4l-40 -190l-128 -15l44 205l135 626l125 16zM258 353q-36 0 -64 -20l-54 -260q10 -3 18 -4q10 -1 19 -1q39 0 67 18q28 18 45 46.5q17 28.5 25 64.5q8 36 8 73q0 36 -16.5 59.5t-47.5 23.5z" />
<glyph unicode="&#240;" horiz-adv-x="477" d="M104 491l122 52q-26 8 -54.5 13.5q-28.5 5.5 -59.5 10.5l32 80q63 -7 110 -21.5q47 -14.5 82 -36.5l133 57l19 -58l-98 -42q22 -23 36 -48q14 -25 22 -51q8 -26 11.5 -52q3.5 -26 3.5 -51q0 -101 -18.5 -169q-18.5 -68 -53.5 -109.5q-35 -41.5 -85 -59.5q-50 -18 -112 -18q-92 0 -132 43.5q-40 43.5 -40 117.5q0 54 13.5 105q13.5 51 42.5 90q29 39 76 62.5q47 23.5 113 23.5q25 0 43.5 -5q18.5 -5 32.5 -12q-6 31 -19 53.5q-13 22.5 -31 38.5l-172 -72zM212 71q61 0 96 63.5q35 63.5 39 189.5q-14 11 -32 18q-18 7 -43 7q-24 0 -46.5 -11q-22.5 -11 -40 -33.5q-17.5 -22.5 -27.5 -58.5q-10 -36 -10 -85q0 -38 14.5 -64t49.5 -26z" />
<glyph unicode="&#193;" horiz-adv-x="587" d="M405 0l-18 157h-216l-80 -157h-133l330 608h164l87 -608zM222 256h155l-23 256h-8zM591 820l-154 -146h-114l131 146z" />
<glyph unicode="&#192;" horiz-adv-x="587" d="M405 0l-18 157h-216l-80 -157h-133l330 608h164l87 -608zM222 256h155l-23 256h-8zM371 820l72 -146h-107l-97 146z" />
<glyph unicode="&#194;" horiz-adv-x="587" d="M405 0l-18 157h-216l-80 -157h-133l330 608h164l87 -608zM222 256h155l-23 256h-8zM489 819l56 -146h-101l-36 85h-10l-83 -85h-105l130 146z" />
<glyph unicode="&#258;" horiz-adv-x="587" d="M405 0l-18 157h-216l-80 -157h-133l330 608h164l87 -608zM222 256h155l-23 256h-8zM383 664q-64 0 -95.5 27.5q-31.5 27.5 -42.5 84.5l88 24q4 -29 18.5 -43.5q14.5 -14.5 48.5 -14.5q30 0 48 14.5q18 14.5 35 43.5l86 -24q-23 -57 -66.5 -84.5t-119.5 -27.5z" />
<glyph unicode="&#196;" horiz-adv-x="587" d="M405 0l-18 157h-216l-80 -157h-133l330 608h164l87 -608zM222 256h155l-23 256h-8zM351 696h-119l21 97h119zM535 696h-119l20 97l119 0z" />
<glyph unicode="&#195;" horiz-adv-x="587" d="M405 0l-18 157h-216l-80 -157h-133l330 608h164l87 -608zM222 256h155l-23 256h-8zM568 732q-24 -20 -54 -33.5q-30 -13.5 -64 -13.5q-22 0 -39 5q-17 5 -32.5 11.5q-15.5 6.5 -30.5 11.5q-15 5 -32 5q-23 0 -42 -8q-19 -8 -37 -20l-30 68q24 20 54 33q30 13 64 13q22 0 39 -5q17 -5 32.5 -11q15.5 -6 30.5 -11q15 -5 32 -5q23 0 42.5 8q19.5 8 36.5 20z" />
<glyph unicode="&#256;" horiz-adv-x="587" d="M405 0l-18 157h-216l-80 -157h-133l330 608h164l87 -608zM222 256h155l-23 256h-8zM535 699h-293l19 91l293 0z" />
<glyph unicode="&#197;" horiz-adv-x="587" d="M405 0l-18 157h-216l-80 -157h-133l330 608h164l87 -608zM222 256h155l-23 256h-8zM386 652q-49 0 -72.5 25.5q-23.5 25.5 -23.5 58.5q0 56 34.5 88.5q34.5 32.5 100.5 32.5q48 0 72 -26q24 -26 24 -59q0 -57 -34.5 -88.5q-34.5 -31.5 -100.5 -31.5zt0 0zM398 716q22 0 34.5 11q12.5 11 12.5 33q0 14 -8.5 23q-8.5 9 -23.5 9q-48 0 -48 -44q0 -14 8.5 -23t24.5 -9z" />
<glyph unicode="&#260;" horiz-adv-x="587" d="M405 0l-18 157h-216l-80 -157h-133l330 608h164l87 -608q-13 -4 -32 -11q-19 -7 -38 -18q-22 -12 -35 -28q-13 -16 -13 -44q0 -32 36 -32q11 0 22 1.5q11 1.5 21 5.5l8 -63q-20 -9 -50 -14.5q-30 -5.5 -58 -5.5q-99 0 -99 73q0 27 6 47q6 20 18.5 36q12.5 16 32.5 28.5q20 12.5 47 24.5zt0 0zM222 256h155l-23 256l-8 0z" />
<glyph unicode="&#198;" horiz-adv-x="831" d="M763 98l-21 -98h-370l25 157h-216l-121 -157h-127l480 608h448l-20 -98h-265l-23 -149h247l-20 -96h-243l-27 -167zM448 510l-190 -254h156l42 254z" />
<glyph unicode="&#262;" horiz-adv-x="535" d="M307 -10q-60 0 -108.5 15.5q-48.5 15.5 -83.5 46.5q-35 31 -54 78q-19 47 -19 109q0 74 21.5 142.5q21.5 68.5 64.5 121q43 52.5 107 84q64 31.5 150 31.5q57 0 107 -16.5q50 -16.5 88 -55.5l-74 -72q-24 23 -55.5 35q-31.5 12 -73.5 12q-55 0 -94.5 -23.5q-39.5 -23.5 -65 -62.5q-25.5 -39 -38 -89q-12.5 -50 -12.5 -102q0 -34 9 -62.5q9 -28.5 28.5 -49.5q19.5 -21 51.5 -32.5q32 -11.5 78 -11.5q37 0 65.5 7q28.5 7 60.5 19l9 -94q-28 -13 -71 -21.5q-43 -8.5 -91 -8.5zt0 0zM632 820l-154 -146h-114l131 146z" />
<glyph unicode="&#268;" horiz-adv-x="535" d="M307 -10q-60 0 -108.5 15.5q-48.5 15.5 -83.5 46.5q-35 31 -54 78q-19 47 -19 109q0 74 21.5 142.5q21.5 68.5 64.5 121q43 52.5 107 84q64 31.5 150 31.5q57 0 107 -16.5q50 -16.5 88 -55.5l-74 -72q-24 23 -55.5 35q-31.5 12 -73.5 12q-55 0 -94.5 -23.5q-39.5 -23.5 -65 -62.5q-25.5 -39 -38 -89q-12.5 -50 -12.5 -102q0 -34 9 -62.5q9 -28.5 28.5 -49.5q19.5 -21 51.5 -32.5q32 -11.5 78 -11.5q37 0 65.5 7q28.5 7 60.5 19l9 -94q-28 -13 -71 -21.5q-43 -8.5 -91 -8.5zt0 0zM317 673l-59 146h103l39 -85h10l79 85h104l-125 -146z" />
<glyph unicode="&#199;" horiz-adv-x="535" d="M307 -10q-60 0 -108.5 15.5q-48.5 15.5 -83.5 46.5q-35 31 -54 78q-19 47 -19 109q0 74 21.5 142.5q21.5 68.5 64.5 121q43 52.5 107 84q64 31.5 150 31.5q57 0 107 -16.5q50 -16.5 88 -55.5l-74 -72q-24 23 -55.5 35q-31.5 12 -73.5 12q-55 0 -94.5 -23.5q-39.5 -23.5 -65 -62.5q-25.5 -39 -38 -89q-12.5 -50 -12.5 -102q0 -34 9 -62.5q9 -28.5 28.5 -49.5q19.5 -21 51.5 -32.5q32 -11.5 78 -11.5q37 0 65.5 7q28.5 7 60.5 19l9 -94q-28 -13 -71 -21.5q-43 -8.5 -91 -8.5zt0 0zM122 -126q14 -5 26 -7.5q12 -2.5 27 -2.5q25 0 40.5 8.5q15.5 8.5 15.5 32.5q0 18 -16 24q-16 6 -52 12l35 58q72 -6 109 -25q37 -19 37 -62q0 -57 -38.5 -89.5q-38.5 -32.5 -130.5 -32.5q-27 0 -53 5q-26 5 -41 11z" />
<glyph unicode="&#264;" horiz-adv-x="535" d="M307 -10q-60 0 -108.5 15.5q-48.5 15.5 -83.5 46.5q-35 31 -54 78q-19 47 -19 109q0 74 21.5 142.5q21.5 68.5 64.5 121q43 52.5 107 84q64 31.5 150 31.5q57 0 107 -16.5q50 -16.5 88 -55.5l-74 -72q-24 23 -55.5 35q-31.5 12 -73.5 12q-55 0 -94.5 -23.5q-39.5 -23.5 -65 -62.5q-25.5 -39 -38 -89q-12.5 -50 -12.5 -102q0 -34 9 -62.5q9 -28.5 28.5 -49.5q19.5 -21 51.5 -32.5q32 -11.5 78 -11.5q37 0 65.5 7q28.5 7 60.5 19l9 -94q-28 -13 -71 -21.5q-43 -8.5 -91 -8.5zt0 0zM494 819l56 -146h-101l-36 85h-10l-83 -85h-105l130 146z" />
<glyph unicode="&#266;" horiz-adv-x="535" d="M307 -10q-60 0 -108.5 15.5q-48.5 15.5 -83.5 46.5q-35 31 -54 78q-19 47 -19 109q0 74 21.5 142.5q21.5 68.5 64.5 121q43 52.5 107 84q64 31.5 150 31.5q57 0 107 -16.5q50 -16.5 88 -55.5l-74 -72q-24 23 -55.5 35q-31.5 12 -73.5 12q-55 0 -94.5 -23.5q-39.5 -23.5 -65 -62.5q-25.5 -39 -38 -89q-12.5 -50 -12.5 -102q0 -34 9 -62.5q9 -28.5 28.5 -49.5q19.5 -21 51.5 -32.5q32 -11.5 78 -11.5q37 0 65.5 7q28.5 7 60.5 19l9 -94q-28 -13 -71 -21.5q-43 -8.5 -91 -8.5zt0 0zM462 696h-124l21 97l124 0z" />
<glyph unicode="&#270;" horiz-adv-x="599" d="M320 608q66 0 117 -17q51 -17 85.5 -48q34.5 -31 52 -74.5q17.5 -43.5 17.5 -97.5q0 -95 -29 -165q-29 -70 -82 -116q-53 -46 -126.5 -68q-73.5 -22 -162.5 -22h-183l129 608zM208 95q58 0 105 17.5q47 17.5 80.5 51.5q33.5 34 51.5 82.5q18 48.5 18 110.5q0 73 -42 114q-42 41 -118 41h-64l-88 -417zM293 673l-59 146h103l39 -85h10l79 85h104l-125 -146z" />
<glyph unicode="&#272;" horiz-adv-x="616" d="M337 608q66 0 117 -17q51 -17 85.5 -48q34.5 -31 52 -74.5q17.5 -43.5 17.5 -97.5q0 -95 -29 -165q-29 -70 -82 -116q-53 -46 -126.5 -68q-73.5 -22 -162.5 -22h-183l54 256h-60l21 97h60l54 255zM225 95q58 0 105 17.5q47 17.5 80.5 51.5q33.5 34 51.5 82.5q18 48.5 18 110.5q0 73 -42 114q-42 41 -118 41h-64l-34 -159h121l-21 -97h-120l-34 -161z" />
<glyph unicode="&#201;" horiz-adv-x="492" d="M425 98l-21 -98h-395l129 608h385l-21 -98h-260l-32 -149h252l-20 -96h-252l-36 -167zM579 820l-154 -146h-114l131 146z" />
<glyph unicode="&#200;" horiz-adv-x="492" d="M425 98l-21 -98h-395l129 608h385l-21 -98h-260l-32 -149h252l-20 -96h-252l-36 -167zM337 820l72 -146h-107l-97 146z" />
<glyph unicode="&#202;" horiz-adv-x="492" d="M425 98l-21 -98h-395l129 608h385l-21 -98h-260l-32 -149h252l-20 -96h-252l-36 -167zM461 819l56 -146h-101l-36 85h-10l-83 -85h-105l130 146z" />
<glyph unicode="&#282;" horiz-adv-x="492" d="M425 98l-21 -98h-395l129 608h385l-21 -98h-260l-32 -149h252l-20 -96h-252l-36 -167zM272 673l-59 146h103l39 -85h10l79 85h104l-125 -146z" />
<glyph unicode="&#203;" horiz-adv-x="492" d="M425 98l-21 -98h-395l129 608h385l-21 -98h-260l-32 -149h252l-20 -96h-252l-36 -167zM317 682h-119l21 97h119zM501 682h-119l20 97l119 0z" />
<glyph unicode="&#274;" horiz-adv-x="492" d="M425 98l-21 -98h-395l129 608h385l-21 -98h-260l-32 -149h252l-20 -96h-252l-36 -167zM498 699h-293l19 91l293 0z" />
<glyph unicode="&#280;" horiz-adv-x="492" d="M425 98l-21 -98h-395l129 608h385l-21 -98h-260l-32 -149h252l-20 -96h-252l-36 -167zM386 -189q-20 -9 -50 -14.5q-30 -5.5 -58 -5.5q-99 0 -99 73q0 20 4 38q4 18 17 35q13 17 37 33q24 16 63 33q26 11 52 18.5q26 7.5 49 11.5l4 -33q-17 -8 -33 -16q-16 -8 -30 -18q-26 -18 -34.5 -33.5q-8.5 -15.5 -8.5 -35.5q0 -30 35 -30q11 0 22.5 1.5q11.5 1.5 21.5 5.5z" />
<glyph unicode="&#286;" horiz-adv-x="595" d="M392 618q64 0 123 -16.5q59 -16.5 98 -52.5l-69 -76q-23 20 -62 34q-39 14 -90 14q-56 0 -98 -19.5q-42 -19.5 -70.5 -55q-28.5 -35.5 -43 -85.5q-14.5 -50 -14.5 -110q0 -77 44 -122q44 -45 136 -45q13 0 26 1q13 1 27 4l31 147h-120l20 95h242l-68 -315q-45 -14 -88 -20q-43 -6 -93 -6q-62 0 -113.5 15.5q-51.5 15.5 -88.5 46.5q-37 31 -58 77.5q-21 46.5 -21 109.5q0 88 26.5 158.5q26.5 70.5 73 119.5q46.5 49 111 75q64.5 26 139.5 26zt0 0zM421 664q-64 0 -95.5 27.5q-31.5 27.5 -42.5 84.5l88 24q4 -29 18.5 -43.5q14.5 -14.5 48.5 -14.5q30 0 48 14.5q18 14.5 35 43.5l86 -24q-23 -57 -66.5 -84.5t-119.5 -27.5z" />
<glyph unicode="&#288;" horiz-adv-x="595" d="M392 618q64 0 123 -16.5q59 -16.5 98 -52.5l-69 -76q-23 20 -62 34q-39 14 -90 14q-56 0 -98 -19.5q-42 -19.5 -70.5 -55q-28.5 -35.5 -43 -85.5q-14.5 -50 -14.5 -110q0 -77 44 -122q44 -45 136 -45q13 0 26 1q13 1 27 4l31 147h-120l20 95h242l-68 -315q-45 -14 -88 -20q-43 -6 -93 -6q-62 0 -113.5 15.5q-51.5 15.5 -88.5 46.5q-37 31 -58 77.5q-21 46.5 -21 109.5q0 88 26.5 158.5q26.5 70.5 73 119.5q46.5 49 111 75q64.5 26 139.5 26zt0 0zM489 696h-124l21 97l124 0z" />
<glyph unicode="&#284;" horiz-adv-x="595" d="M392 618q64 0 123 -16.5q59 -16.5 98 -52.5l-69 -76q-23 20 -62 34q-39 14 -90 14q-56 0 -98 -19.5q-42 -19.5 -70.5 -55q-28.5 -35.5 -43 -85.5q-14.5 -50 -14.5 -110q0 -77 44 -122q44 -45 136 -45q13 0 26 1q13 1 27 4l31 147h-120l20 95h242l-68 -315q-45 -14 -88 -20q-43 -6 -93 -6q-62 0 -113.5 15.5q-51.5 15.5 -88.5 46.5q-37 31 -58 77.5q-21 46.5 -21 109.5q0 88 26.5 158.5q26.5 70.5 73 119.5q46.5 49 111 75q64.5 26 139.5 26zt0 0zM524 819l56 -146h-101l-36 85h-10l-83 -85h-105l130 146z" />
<glyph unicode="&#294;" horiz-adv-x="632" d="M644 608l-20 -92h62l-19 -90h-62l-90 -426h-124l54 255h-238l-54 -255h-124l90 426h-59l19 90h59l20 92h125l-20 -92h237l20 92zM466 354l15 72h-238l-15 -72z" />
<glyph unicode="&#292;" horiz-adv-x="599" d="M624 608l-129 -608h-124l54 255h-238l-54 -255h-124l129 608h125l-55 -254h238l54 254zM500 819l56 -146h-101l-36 85h-10l-83 -85h-105l130 146z" />
<glyph unicode="&#205;" horiz-adv-x="238" d="M138 608h125l-130 -608h-124zM412 820l-154 -146h-114l131 146z" />
<glyph unicode="&#204;" horiz-adv-x="238" d="M138 608h125l-130 -608h-124zM210 820l72 -146h-107l-97 146z" />
<glyph unicode="&#206;" horiz-adv-x="238" d="M138 608h125l-130 -608h-124zM325 819l56 -146h-101l-36 85h-10l-83 -85h-105l130 146z" />
<glyph unicode="&#207;" horiz-adv-x="238" d="M138 608h125l-130 -608h-124zM185 682h-119l21 97h119zM369 682h-119l20 97l119 0z" />
<glyph unicode="&#296;" horiz-adv-x="238" d="M138 608h125l-130 -608h-124zM392 732q-24 -20 -54 -33.5q-30 -13.5 -64 -13.5q-22 0 -39 5q-17 5 -32.5 11.5q-15.5 6.5 -30.5 11.5q-15 5 -32 5q-23 0 -42 -8q-19 -8 -37 -20l-30 68q24 20 54 33q30 13 64 13q22 0 39 -5q17 -5 32.5 -11q15.5 -6 30.5 -11q15 -5 32 -5q23 0 42.5 8q19.5 8 36.5 20z" />
<glyph unicode="&#298;" horiz-adv-x="238" d="M138 608h125l-130 -608h-124zM366 699h-293l19 91l293 0z" />
<glyph unicode="&#302;" horiz-adv-x="238" d="M138 608h125l-130 -608h-1q-14 -4 -32 -11q-19 -8 -38 -19q-22 -12 -35 -28.5q-13 -16.5 -13 -44.5q0 -30 36 -30q11 0 22 1.5q11 1.5 21 5.5l8 -63q-20 -9 -50 -14.5q-30 -5.5 -58 -5.5q-99 0 -99 72q0 54 29.5 83.5q29.5 29.5 85.5 53.5z" />
<glyph unicode="&#304;" horiz-adv-x="238" d="M138 608h125l-130 -608h-124zM283 696h-124l21 97l124 0z" />
<glyph unicode="&#308;" horiz-adv-x="336" d="M348 608l-98 -459q-9 -44 -26 -74q-17 -30 -42 -48q-25 -18 -58.5 -26q-33.5 -8 -76.5 -8q-19 0 -43 2.5q-24 2.5 -45 9.5v93q50 -8 78 -8q38 0 61 18.5q23 18.5 33 63.5l92 436zM420 819l56 -146h-101l-36 85h-10l-83 -85h-105l130 146z" />
<glyph unicode="&#313;" horiz-adv-x="428" d="M393 98l-21 -98h-363l129 608h125l-109 -510zM463 820l-154 -146h-114l131 146z" />
<glyph unicode="&#317;" horiz-adv-x="428" d="M368 479h-91l53 155h130zM393 98l-21 -98h-363l129 608h125l-109 -510z" />
<glyph unicode="&#321;" horiz-adv-x="428" d="M393 98l-21 -98h-363l41 196l-59 -31l20 97l60 31l67 315h125l-52 -243l158 82l-21 -96l-158 -82l-36 -171z" />
<glyph unicode="&#323;" horiz-adv-x="647" d="M674 608l-130 -608h-214l-80 512h-8l-109 -512h-124l129 608h215l80 -512h7l109 512zM625 820l-154 -146h-114l131 146z" />
<glyph unicode="&#327;" horiz-adv-x="647" d="M674 608l-130 -608h-214l-80 512h-8l-109 -512h-124l129 608h215l80 -512h7l109 512zM332 673l-59 146h103l39 -85h10l79 85h104l-125 -146z" />
<glyph unicode="&#209;" horiz-adv-x="647" d="M674 608l-130 -608h-214l-80 512h-8l-109 -512h-124l129 608h215l80 -512h7l109 512zM607 735q-24 -20 -54 -33.5q-30 -13.5 -64 -13.5q-22 0 -39 5q-17 5 -32.5 11.5q-15.5 6.5 -30.5 11.5q-15 5 -32 5q-23 0 -42 -8q-19 -8 -37 -20l-30 68q24 20 54 33q30 13 64 13q22 0 39 -5q17 -5 32.5 -11q15.5 -6 30.5 -11q15 -5 32 -5q23 0 42.5 8q19.5 8 36.5 20z" />
<glyph unicode="&#330;" horiz-adv-x="647" d="M674 608l-119 -556l-11 -52l-6 -28q-11 -51 -29.5 -85.5q-18.5 -34.5 -47 -54.5q-28.5 -20 -68 -28.5q-39.5 -8.5 -91.5 -8.5h-7l19 87h10q32 0 55 17q23 17 32 60l8 41h-89l-80 512h-8l-109 -512h-124l129 608h215l80 -512h7l109 512z" />
<glyph unicode="&#211;" horiz-adv-x="626" d="M272 -10q-113 0 -171.5 57.5q-58.5 57.5 -58.5 171.5q0 91 24.5 165q24.5 74 69.5 126q45 52 109 80q64 28 144 28q113 0 171.5 -58q58.5 -58 58.5 -171q0 -92 -24.5 -166q-24.5 -74 -70 -126q-45.5 -52 -109.5 -79.5q-64 -27.5 -143 -27.5zt0 0zM373 525q-41 0 -77 -21q-36 -21 -64 -59.5q-28 -38.5 -44 -94q-16 -55.5 -16 -124.5q0 -69 30 -105q30 -36 84 -36q40 0 76.5 20.5q36.5 20.5 64.5 59.5q28 39 44 94.5q16 55.5 16 124.5q0 70 -30 105.5q-30 35.5 -84 35.5zt0 0zM644 820l-154 -146h-114l131 146z" />
<glyph unicode="&#210;" horiz-adv-x="626" d="M272 -10q-113 0 -171.5 57.5q-58.5 57.5 -58.5 171.5q0 91 24.5 165q24.5 74 69.5 126q45 52 109 80q64 28 144 28q113 0 171.5 -58q58.5 -58 58.5 -171q0 -92 -24.5 -166q-24.5 -74 -70 -126q-45.5 -52 -109.5 -79.5q-64 -27.5 -143 -27.5zt0 0zM373 525q-41 0 -77 -21q-36 -21 -64 -59.5q-28 -38.5 -44 -94q-16 -55.5 -16 -124.5q0 -69 30 -105q30 -36 84 -36q40 0 76.5 20.5q36.5 20.5 64.5 59.5q28 39 44 94.5q16 55.5 16 124.5q0 70 -30 105.5q-30 35.5 -84 35.5zt0 0zM364 820l72 -146h-107l-97 146z" />
<glyph unicode="&#212;" horiz-adv-x="626" d="M272 -10q-113 0 -171.5 57.5q-58.5 57.5 -58.5 171.5q0 91 24.5 165q24.5 74 69.5 126q45 52 109 80q64 28 144 28q113 0 171.5 -58q58.5 -58 58.5 -171q0 -92 -24.5 -166q-24.5 -74 -70 -126q-45.5 -52 -109.5 -79.5q-64 -27.5 -143 -27.5zt0 0zM373 525q-41 0 -77 -21q-36 -21 -64 -59.5q-28 -38.5 -44 -94q-16 -55.5 -16 -124.5q0 -69 30 -105q30 -36 84 -36q40 0 76.5 20.5q36.5 20.5 64.5 59.5q28 39 44 94.5q16 55.5 16 124.5q0 70 -30 105.5q-30 35.5 -84 35.5zt0 0zM520 819l56 -146h-101l-36 85h-10l-83 -85h-105l130 146z" />
<glyph unicode="&#214;" horiz-adv-x="626" d="M272 -10q-113 0 -171.5 57.5q-58.5 57.5 -58.5 171.5q0 91 24.5 165q24.5 74 69.5 126q45 52 109 80q64 28 144 28q113 0 171.5 -58q58.5 -58 58.5 -171q0 -92 -24.5 -166q-24.5 -74 -70 -126q-45.5 -52 -109.5 -79.5q-64 -27.5 -143 -27.5zt0 0zM373 525q-41 0 -77 -21q-36 -21 -64 -59.5q-28 -38.5 -44 -94q-16 -55.5 -16 -124.5q0 -69 30 -105q30 -36 84 -36q40 0 76.5 20.5q36.5 20.5 64.5 59.5q28 39 44 94.5q16 55.5 16 124.5q0 70 -30 105.5q-30 35.5 -84 35.5zt0 0zM379 682h-119l21 97h119zM563 682h-119l20 97l119 0z" />
<glyph unicode="&#213;" horiz-adv-x="626" d="M272 -10q-113 0 -171.5 57.5q-58.5 57.5 -58.5 171.5q0 91 24.5 165q24.5 74 69.5 126q45 52 109 80q64 28 144 28q113 0 171.5 -58q58.5 -58 58.5 -171q0 -92 -24.5 -166q-24.5 -74 -70 -126q-45.5 -52 -109.5 -79.5q-64 -27.5 -143 -27.5zt0 0zM373 525q-41 0 -77 -21q-36 -21 -64 -59.5q-28 -38.5 -44 -94q-16 -55.5 -16 -124.5q0 -69 30 -105q30 -36 84 -36q40 0 76.5 20.5q36.5 20.5 64.5 59.5q28 39 44 94.5q16 55.5 16 124.5q0 70 -30 105.5q-30 35.5 -84 35.5zt0 0zM589 732q-24 -20 -54 -33.5q-30 -13.5 -64 -13.5q-22 0 -39 5q-17 5 -32.5 11.5q-15.5 6.5 -30.5 11.5q-15 5 -32 5q-23 0 -42 -8q-19 -8 -37 -20l-30 68q24 20 54 33q30 13 64 13q22 0 39 -5q17 -5 32.5 -11q15.5 -6 30.5 -11q15 -5 32 -5q23 0 42.5 8q19.5 8 36.5 20z" />
<glyph unicode="&#332;" horiz-adv-x="626" d="M272 -10q-113 0 -171.5 57.5q-58.5 57.5 -58.5 171.5q0 91 24.5 165q24.5 74 69.5 126q45 52 109 80q64 28 144 28q113 0 171.5 -58q58.5 -58 58.5 -171q0 -92 -24.5 -166q-24.5 -74 -70 -126q-45.5 -52 -109.5 -79.5q-64 -27.5 -143 -27.5zt0 0zM373 525q-41 0 -77 -21q-36 -21 -64 -59.5q-28 -38.5 -44 -94q-16 -55.5 -16 -124.5q0 -69 30 -105q30 -36 84 -36q40 0 76.5 20.5q36.5 20.5 64.5 59.5q28 39 44 94.5q16 55.5 16 124.5q0 70 -30 105.5q-30 35.5 -84 35.5zt0 0zM559 699h-293l19 91l293 0z" />
<glyph unicode="&#216;" horiz-adv-x="626" d="M-14 -4l85 91q-29 53 -29 132q0 91 24.5 165q24.5 74 69.5 126q45 52 109 80q64 28 144 28q87 0 143 -36l80 85l61 -51l-86 -92q32 -53 32 -135q0 -92 -24.5 -166q-24.5 -74 -70 -126q-45.5 -52 -109.5 -79.5q-64 -27.5 -143 -27.5q-94 0 -148 38l-77 -83zM286 81q40 0 77.5 21.5q37.5 21.5 65.5 61q28 39.5 45 95.5q17 56 17 125q0 9 -0.5 17.5q-0.5 8.5 -1.5 16.5l-284 -304q30 -33 81 -33zt0 0zM168 226q0 -9 0 -17q0 -8 2 -16l283 304q-30 32 -80 32q-41 0 -78 -21.5q-37 -21.5 -65 -61q-28 -39.5 -45 -95.5t-17 -125z" />
<glyph unicode="&#340;" horiz-adv-x="540" d="M254 239h-71l-51 -239h-123l129 608h205q45 0 83.5 -7.5q38.5 -7.5 66.5 -25.5q28 -18 44 -47q16 -29 16 -71q0 -45 -13.5 -79.5q-13.5 -34.5 -36.5 -59.5q-23 -25 -55.5 -41.5q-32.5 -16.5 -69.5 -26.5l99 -250h-135zM203 335h107q20 0 40 5.5q20 5.5 36 18q16 12.5 26 33.5q10 21 10 51q0 21 -10 34q-10 13 -25.5 20.5q-15.5 7.5 -34 10q-18.5 2.5 -35.5 2.5h-76zM549 820l-154 -146h-114l131 146z" />
<glyph unicode="&#344;" horiz-adv-x="540" d="M254 239h-71l-51 -239h-123l129 608h205q45 0 83.5 -7.5q38.5 -7.5 66.5 -25.5q28 -18 44 -47q16 -29 16 -71q0 -45 -13.5 -79.5q-13.5 -34.5 -36.5 -59.5q-23 -25 -55.5 -41.5q-32.5 -16.5 -69.5 -26.5l99 -250h-135zM203 335h107q20 0 40 5.5q20 5.5 36 18q16 12.5 26 33.5q10 21 10 51q0 21 -10 34q-10 13 -25.5 20.5q-15.5 7.5 -34 10q-18.5 2.5 -35.5 2.5h-76zM278 673l-59 146h103l39 -85h10l79 85h104l-125 -146z" />
<glyph unicode="&#346;" horiz-adv-x="498" d="M60 122q32 -15 69 -23q37 -8 70 -8q26 0 50 4.5q24 4.5 42 14q18 9.5 29 24.5q11 15 11 35q0 22 -12 35q-12 13 -20 17q-32 17 -66 30.5q-34 13.5 -69 30.5q-40 20 -64 53q-24 33 -24 77q0 51 18.5 90q18.5 39 53 64.5q34.5 25.5 82 38.5q47.5 13 106.5 13q46 0 91 -8.5q45 -8.5 83 -28.5l-50 -89q-25 11 -57.5 19.5q-32.5 8.5 -74.5 8.5q-51 0 -87 -18.5q-36 -18.5 -36 -59.5q0 -24 14 -38q14 -14 28 -21q26 -13 62 -27q36 -14 67 -31q33 -18 57 -50q24 -32 24 -80q0 -51 -19.5 -89.5q-19.5 -38.5 -54.5 -64q-35 -25.5 -83 -38.5q-48 -13 -106 -13q-49 0 -95.5 10q-46.5 10 -91.5 32zM555 820l-154 -146h-114l131 146z" />
<glyph unicode="&#352;" horiz-adv-x="498" d="M60 122q32 -15 69 -23q37 -8 70 -8q26 0 50 4.5q24 4.5 42 14q18 9.5 29 24.5q11 15 11 35q0 22 -12 35q-12 13 -20 17q-32 17 -66 30.5q-34 13.5 -69 30.5q-40 20 -64 53q-24 33 -24 77q0 51 18.5 90q18.5 39 53 64.5q34.5 25.5 82 38.5q47.5 13 106.5 13q46 0 91 -8.5q45 -8.5 83 -28.5l-50 -89q-25 11 -57.5 19.5q-32.5 8.5 -74.5 8.5q-51 0 -87 -18.5q-36 -18.5 -36 -59.5q0 -24 14 -38q14 -14 28 -21q26 -13 62 -27q36 -14 67 -31q33 -18 57 -50q24 -32 24 -80q0 -51 -19.5 -89.5q-19.5 -38.5 -54.5 -64q-35 -25.5 -83 -38.5q-48 -13 -106 -13q-49 0 -95.5 10q-46.5 10 -91.5 32zM268 673l-59 146h103l39 -85h10l79 85h104l-125 -146z" />
<glyph unicode="&#350;" horiz-adv-x="498" d="M60 122q32 -15 69 -23q37 -8 70 -8q26 0 50 4.5q24 4.5 42 14q18 9.5 29 24.5q11 15 11 35q0 22 -12 35q-12 13 -20 17q-32 17 -66 30.5q-34 13.5 -69 30.5q-40 20 -64 53q-24 33 -24 77q0 51 18.5 90q18.5 39 53 64.5q34.5 25.5 82 38.5q47.5 13 106.5 13q46 0 91 -8.5q45 -8.5 83 -28.5l-50 -89q-25 11 -57.5 19.5q-32.5 8.5 -74.5 8.5q-51 0 -87 -18.5q-36 -18.5 -36 -59.5q0 -24 14 -38q14 -14 28 -21q26 -13 62 -27q36 -14 67 -31q33 -18 57 -50q24 -32 24 -80q0 -51 -19.5 -89.5q-19.5 -38.5 -54.5 -64q-35 -25.5 -83 -38.5q-48 -13 -106 -13q-49 0 -95.5 10q-46.5 10 -91.5 32zM88 -126q14 -5 26 -7.5q12 -2.5 27 -2.5q25 0 40.5 8.5q15.5 8.5 15.5 32.5q0 18 -16 24q-16 6 -52 12l35 58q72 -6 109 -25q37 -19 37 -62q0 -57 -38.5 -89.5q-38.5 -32.5 -130.5 -32.5q-27 0 -53 5q-26 5 -41 11z" />
<glyph unicode="&#348;" horiz-adv-x="498" d="M60 122q32 -15 69 -23q37 -8 70 -8q26 0 50 4.5q24 4.5 42 14q18 9.5 29 24.5q11 15 11 35q0 22 -12 35q-12 13 -20 17q-32 17 -66 30.5q-34 13.5 -69 30.5q-40 20 -64 53q-24 33 -24 77q0 51 18.5 90q18.5 39 53 64.5q34.5 25.5 82 38.5q47.5 13 106.5 13q46 0 91 -8.5q45 -8.5 83 -28.5l-50 -89q-25 11 -57.5 19.5q-32.5 8.5 -74.5 8.5q-51 0 -87 -18.5q-36 -18.5 -36 -59.5q0 -24 14 -38q14 -14 28 -21q26 -13 62 -27q36 -14 67 -31q33 -18 57 -50q24 -32 24 -80q0 -51 -19.5 -89.5q-19.5 -38.5 -54.5 -64q-35 -25.5 -83 -38.5q-48 -13 -106 -13q-49 0 -95.5 10q-46.5 10 -91.5 32zM460 819l56 -146h-101l-36 85h-10l-83 -85h-105l130 146z" />
<glyph unicode="&#356;" horiz-adv-x="500" d="M564 608l-20 -98h-174l-108 -510h-124l108 510h-173l21 98zM267 673l-59 146h103l39 -85h10l79 85h104l-125 -146z" />
<glyph unicode="&#218;" horiz-adv-x="578" d="M608 608l-77 -365q-29 -134 -100.5 -193.5q-71.5 -59.5 -187.5 -59.5q-67 0 -108.5 20.5q-41.5 20.5 -62 58q-20.5 37.5 -21.5 88.5q-1 51 12 113l71 338h124l-79 -373q-6 -26 -7 -52.5q-1 -26.5 6 -48q7 -21.5 25.5 -35q18.5 -13.5 51.5 -13.5q33 0 57.5 9q24.5 9 42.5 28.5q18 19.5 31 50.5q13 31 22 76l76 358zM581 820l-154 -146h-114l131 146z" />
<glyph unicode="&#217;" horiz-adv-x="578" d="M608 608l-77 -365q-29 -134 -100.5 -193.5q-71.5 -59.5 -187.5 -59.5q-67 0 -108.5 20.5q-41.5 20.5 -62 58q-20.5 37.5 -21.5 88.5q-1 51 12 113l71 338h124l-79 -373q-6 -26 -7 -52.5q-1 -26.5 6 -48q7 -21.5 25.5 -35q18.5 -13.5 51.5 -13.5q33 0 57.5 9q24.5 9 42.5 28.5q18 19.5 31 50.5q13 31 22 76l76 358zM370 820l72 -146h-107l-97 146z" />
<glyph unicode="&#219;" horiz-adv-x="578" d="M608 608l-77 -365q-29 -134 -100.5 -193.5q-71.5 -59.5 -187.5 -59.5q-67 0 -108.5 20.5q-41.5 20.5 -62 58q-20.5 37.5 -21.5 88.5q-1 51 12 113l71 338h124l-79 -373q-6 -26 -7 -52.5q-1 -26.5 6 -48q7 -21.5 25.5 -35q18.5 -13.5 51.5 -13.5q33 0 57.5 9q24.5 9 42.5 28.5q18 19.5 31 50.5q13 31 22 76l76 358zM495 819l56 -146h-101l-36 85h-10l-83 -85h-105l130 146z" />
<glyph unicode="&#220;" horiz-adv-x="578" d="M608 608l-77 -365q-29 -134 -100.5 -193.5q-71.5 -59.5 -187.5 -59.5q-67 0 -108.5 20.5q-41.5 20.5 -62 58q-20.5 37.5 -21.5 88.5q-1 51 12 113l71 338h124l-79 -373q-6 -26 -7 -52.5q-1 -26.5 6 -48q7 -21.5 25.5 -35q18.5 -13.5 51.5 -13.5q33 0 57.5 9q24.5 9 42.5 28.5q18 19.5 31 50.5q13 31 22 76l76 358zM356 682h-119l21 97h119zM540 682h-119l20 97l119 0z" />
<glyph unicode="&#360;" horiz-adv-x="578" d="M608 608l-77 -365q-29 -134 -100.5 -193.5q-71.5 -59.5 -187.5 -59.5q-67 0 -108.5 20.5q-41.5 20.5 -62 58q-20.5 37.5 -21.5 88.5q-1 51 12 113l71 338h124l-79 -373q-6 -26 -7 -52.5q-1 -26.5 6 -48q7 -21.5 25.5 -35q18.5 -13.5 51.5 -13.5q33 0 57.5 9q24.5 9 42.5 28.5q18 19.5 31 50.5q13 31 22 76l76 358zM565 732q-24 -20 -54 -33.5q-30 -13.5 -64 -13.5q-22 0 -39 5q-17 5 -32.5 11.5q-15.5 6.5 -30.5 11.5q-15 5 -32 5q-23 0 -42 -8q-19 -8 -37 -20l-30 68q24 20 54 33q30 13 64 13q22 0 39 -5q17 -5 32.5 -11q15.5 -6 30.5 -11q15 -5 32 -5q23 0 42.5 8q19.5 8 36.5 20z" />
<glyph unicode="&#364;" horiz-adv-x="578" d="M608 608l-77 -365q-29 -134 -100.5 -193.5q-71.5 -59.5 -187.5 -59.5q-67 0 -108.5 20.5q-41.5 20.5 -62 58q-20.5 37.5 -21.5 88.5q-1 51 12 113l71 338h124l-79 -373q-6 -26 -7 -52.5q-1 -26.5 6 -48q7 -21.5 25.5 -35q18.5 -13.5 51.5 -13.5q33 0 57.5 9q24.5 9 42.5 28.5q18 19.5 31 50.5q13 31 22 76l76 358zM390 664q-64 0 -95.5 27.5q-31.5 27.5 -42.5 84.5l88 24q4 -29 18.5 -43.5q14.5 -14.5 48.5 -14.5q30 0 48 14.5q18 14.5 35 43.5l86 -24q-23 -57 -66.5 -84.5t-119.5 -27.5z" />
<glyph unicode="&#362;" horiz-adv-x="578" d="M608 608l-77 -365q-29 -134 -100.5 -193.5q-71.5 -59.5 -187.5 -59.5q-67 0 -108.5 20.5q-41.5 20.5 -62 58q-20.5 37.5 -21.5 88.5q-1 51 12 113l71 338h124l-79 -373q-6 -26 -7 -52.5q-1 -26.5 6 -48q7 -21.5 25.5 -35q18.5 -13.5 51.5 -13.5q33 0 57.5 9q24.5 9 42.5 28.5q18 19.5 31 50.5q13 31 22 76l76 358zM539 699h-293l19 91l293 0z" />
<glyph unicode="&#370;" horiz-adv-x="578" d="M608 608l-77 -365q-29 -134 -101 -194q-35 -29 -80 -43l0 -1q-7 -2 -22 -9q-15 -7 -29 -17q-16 -11 -27 -26.5q-11 -15.5 -11 -46.5q0 -17 7.5 -28q7.5 -11 25.5 -11q11 0 22 1.5q11 1.5 22 5.5l8 -63q-21 -9 -51 -14.5q-30 -5.5 -58 -5.5q-98 0 -98 74q0 26 6 46q6 20 21 37q15 17 40 32q9 5 19 11q-55 2 -91 19q-41 21 -61.5 58.5q-20.5 37.5 -21.5 88.5q-1 51 12 113l71 338h124l-79 -373q-6 -26 -7 -52.5q-1 -26.5 6 -48q7 -21.5 25.5 -35q18.5 -13.5 51.5 -13.5q33 0 57.5 9q24.5 9 42.5 28.5q18 19.5 31 50.5q13 31 22 76l76 358z" />
<glyph unicode="&#221;" horiz-adv-x="535" d="M286 0h-124l61 239q-18 39 -37 87.5q-19 48.5 -37.5 99q-18.5 50.5 -36.5 98q-18 47.5 -36 84.5l132 0l86 -259h8l184 259h131l-279 -369zM571 820l-154 -146h-114l131 146z" />
<glyph unicode="&#377;" horiz-adv-x="524" d="M152 97h312l-19 -97h-463l14 77l399 435h-292l19 96h443l-16 -77zM602 820l-154 -146h-114l131 146z" />
<glyph unicode="&#381;" horiz-adv-x="524" d="M152 97h312l-19 -97h-463l14 77l399 435h-292l19 96h443l-16 -77zM292 673l-59 146h103l39 -85h10l79 85h104l-125 -146z" />
<glyph unicode="&#379;" horiz-adv-x="524" d="M152 97h312l-19 -97h-463l14 77l399 435h-292l19 96h443l-16 -77zM437 683h-124l21 97l124 0z" />
<glyph unicode="&#222;" horiz-adv-x="514" d="M238 502h102q86 0 132 -37.5q46 -37.5 46 -109.5q0 -55 -20 -100q-20 -45 -54 -76.5q-34 -31.5 -79.5 -48.5q-45.5 -17 -95.5 -17h-113l-24 -113h-123l129 608h123zM218 405l-42 -196h93q20 0 41 7q21 7 37.5 22q16.5 15 27 39q10.5 24 10.5 57q0 20 -6.5 33.5q-6.5 13.5 -17 22q-10.5 8.5 -24 12q-13.5 3.5 -26.5 3.5z" />
<glyph unicode="&#208;" horiz-adv-x="616" d="M337 608q66 0 117 -17q51 -17 85.5 -48q34.5 -31 52 -74.5q17.5 -43.5 17.5 -97.5q0 -95 -29 -165q-29 -70 -82 -116q-53 -46 -126.5 -68q-73.5 -22 -162.5 -22h-183l54 256h-60l21 97h60l54 255zM225 95q58 0 105 17.5q47 17.5 80.5 51.5q33.5 34 51.5 82.5q18 48.5 18 110.5q0 73 -42 114q-42 41 -118 41h-64l-34 -159h121l-21 -97h-120l-34 -161z" />
<glyph unicode="&#181;" horiz-adv-x="464" d="M88 423h123l-46 -216q-5 -21 -10 -45q-5 -24 -5 -39q0 -15 8 -26.5q8 -11.5 32 -11.5q25 0 46.5 6.5q21.5 6.5 38.5 17.5l67 314h122l-65 -309l-17 -114h-113l2 26q-53 -35 -115 -35q-23 0 -43 5q-2 -12 -4.5 -28q-2.5 -16 -5.5 -38q-3 -20 -7.5 -43.5q-4.5 -23.5 -8.5 -44q-4 -20.5 -7 -34q-3 -13.5 -3 -13.5l-122 0z" />
<glyph unicode="&#185;" horiz-adv-x="295" d="M153 295l49 230l-72 -28l-20 55l123 55h58l-66 -312z" />
<glyph unicode="&#178;" horiz-adv-x="295" d="M280 295h-249l8 56l155 115q14 10 27.5 22q13.5 12 13.5 29q0 14 -12 19q-12 5 -26 5q-26 0 -50.5 -7q-24.5 -7 -47.5 -20l-22 58q66 40 140 40q20 0 38.5 -4.5q18.5 -4.5 32.5 -14q14 -9.5 22.5 -24q8.5 -14.5 8.5 -34.5q0 -33 -20 -58.5q-20 -25.5 -47 -44.5l-94 -66l137 0z" />
<glyph unicode="&#179;" horiz-adv-x="295" d="M307 404q0 -27 -10.5 -48.5q-10.5 -21.5 -28.5 -36q-18 -14.5 -42.5 -22q-24.5 -7.5 -52.5 -7.5q-37 0 -71 8.5q-34 8.5 -63 32.5l40 58q20 -14 42 -18.5q22 -4.5 45 -4.5q10 0 21 2q11 2 20 6.5q9 4.5 15 11.5q6 7 6 18q0 9 -5 13.5q-5 4.5 -12.5 7q-7.5 2.5 -16.5 3q-9 0.5 -18 0.5h-51l10 56h36q11 0 23.5 1q12.5 1 23 4.5q10.5 3.5 17.5 10q7 6.5 7 16.5q0 14 -14 19q-14 5 -30 5q-23 0 -44 -6q-21 -6 -41 -16l-24 59q32 17 65.5 26q33.5 9 69.5 9q18 0 36.5 -3q18.5 -3 32.5 -10.5q14 -7.5 23 -20.5q9 -13 9 -33q0 -27 -19.5 -46q-19.5 -19 -49.5 -27q22 -8 36.5 -25t14.5 -43z" />
<glyph unicode="&#189;" horiz-adv-x="624" d="M-13 -30l572 668h105l-572 -668zM138 296l50 236l-71 -30l-22 51l135 58h57l-67 -315zM351 0l9 43l137 113q25 20 35 33q10 13 10 31q0 14 -9 23.5q-9 9.5 -29 9.5q-23 0 -44.5 -5q-21.5 -5 -42.5 -16l-16 56q36 19 68.5 24.5q32.5 5.5 58.5 5.5q102 0 102 -82q0 -20 -6.5 -35.5q-6.5 -15.5 -17.5 -29q-11 -13.5 -25.5 -25.5q-14.5 -12 -30.5 -25l-71 -56h127l-13 -65z" />
<glyph unicode="&#64257;" horiz-adv-x="516" d="M130 423l10 49q10 49 31.5 82q21.5 33 53.5 52.5q32 19.5 74.5 27.5q42.5 8 94.5 8q42 0 87.5 -4.5q45.5 -4.5 76.5 -13.5l-25 -113h-125l13 50q-12 2 -23 2q-11 0 -19 0q-30 0 -51 -8.5q-21 -8.5 -35 -21.5q-14 -13 -21.5 -30q-7.5 -17 -10.5 -33l-9 -47h261l-90 -423h-122l72 335h-138l-79 -370q-10 -48 -30.5 -80.5q-20.5 -32.5 -49 -52.5q-28.5 -20 -63.5 -28.5q-35 -8.5 -74 -8.5q-37 0 -72 8l30 88q10 -3 21 -5q11 -2 22 -2q82 0 97 74l77 377h-72l18 88z" />
<glyph unicode="&#64258;" horiz-adv-x="536" d="M483 -3q-5 -1 -10 -1q-5 -1 -11 -1q-6 0 -11 0q-59 0 -86.5 22q-27.5 22 -27.5 69q0 23 6 50l89 421q-13 2 -24 3q-11 1 -19 1q-60 0 -88.5 -25.5q-28.5 -25.5 -35.5 -58.5l-11 -54h98l-19 -88h-98l-79 -370q-10 -48 -30.5 -80.5q-20.5 -32.5 -49 -52.5q-28.5 -20 -63.5 -28.5q-35 -8.5 -74 -8.5q-37 0 -72 8l30 88q10 -3 21 -5q11 -2 22 -2q82 0 97 74l77 377h-72l18 88h72l10 49q10 49 32.5 82q22.5 33 56 52.5q33.5 19.5 77 27.5q43.5 8 96.5 8q42 0 82.5 -5q40.5 -5 81.5 -14l-102 -479q-6 -26 -6 -37q0 -14 9 -19.5q9 -5.5 32 -6.5z" />
<glyph unicode="&#83;" horiz-adv-x="498" d="M60 122q32 -15 69 -23q37 -8 70 -8q26 0 50 4.5q24 4.5 42 14q18 9.5 29 24.5q11 15 11 35q0 22 -12 35q-12 13 -20 17q-32 17 -66 30.5q-34 13.5 -69 30.5q-40 20 -64 53q-24 33 -24 77q0 51 18.5 90q18.5 39 53 64.5q34.5 25.5 82 38.5q47.5 13 106.5 13q46 0 91 -8.5q45 -8.5 83 -28.5l-50 -89q-25 11 -57.5 19.5q-32.5 8.5 -74.5 8.5q-51 0 -87 -18.5q-36 -18.5 -36 -59.5q0 -24 14 -38q14 -14 28 -21q26 -13 62 -27q36 -14 67 -31q33 -18 57 -50q24 -32 24 -80q0 -51 -19.5 -89.5q-19.5 -38.5 -54.5 -64q-35 -25.5 -83 -38.5q-48 -13 -106 -13q-49 0 -95.5 10q-46.5 10 -91.5 32z" />
<glyph unicode="&#36;" horiz-adv-x="486" d="M61 122q32 -15 69 -23q32 -7 62 -8l34 163q-30 13 -61 28q-40 20 -64 53q-24 33 -24 77q0 51 18.5 90q18.5 39 53 64.5q34.5 25.5 81.5 38.5q34 9 73 12l17 79h67l-17 -79q29 -2 58 -8q45 -8 83 -28l-50 -89q-25 11 -58 19q-24 7 -54 8l-35 -165q33 -13 63 -29q33 -18 57 -50q24 -32 24 -80q0 -51 -19.5 -89.5q-19.5 -38.5 -54.5 -64q-35 -25.5 -83 -38.5q-30 -8 -65 -11l-15 -74h-66l15 73q-36 2 -71 9q-46 10 -91 32zM242 501q-36 -18 -36 -59q0 -24 14 -38q14 -14 28 -21l5 -3l28 135q-21 -5 -39 -14zt0 0zM292 109q18 10 29 25q11 15 11 35q0 22 -12 35q-12 13 -20 17l-13 7l-28 -131q18 5 33 12z" />
<glyph unicode="&#112;" horiz-adv-x="468" d="M68 309l16 114h104l2 -33q51 43 124 43q62 0 98 -41q36 -41 36 -110q0 -58 -16.5 -110.5q-16.5 -52.5 -48.5 -92.5q-32 -40 -79.5 -63.5q-47.5 -23.5 -109.5 -23.5q-36 0 -69 9l-42 -198l-126 -16zM260 353q-38 0 -65 -21l-55 -257q11 -5 20.5 -6q9.5 -1 18.5 -1q40 0 67.5 18.5q27.5 18.5 45 47.5q17.5 29 25 65q7.5 36 7.5 71q0 37 -16 60t-48 23z" />
<glyph unicode="&#291;" horiz-adv-x="466" d="M267 433q26 0 52 -5q26 -5 49 -19h8h91l-93 -420q-12 -55 -34.5 -93.5q-22.5 -38.5 -54.5 -62.5q-32 -24 -72.5 -35q-40.5 -11 -87.5 -11q-37 0 -75 5.5q-38 5.5 -61 13.5l34 88q15 -6 42.5 -12q27.5 -6 62.5 -6q45 0 78 20q33 20 44 71l11 52q-44 -29 -103 -29q-65 0 -100 39.5q-35 39.5 -35 111.5q0 76 20 131q20 55 54 91q34 36 78 53q44 17 92 17zt0 0zM211 69q35 0 63 20l54 257q-11 5 -21 7q-10 2 -19 2q-69 0 -104.5 -53.5q-35.5 -53.5 -35.5 -142.5q0 -40 14 -65q14 -25 49 -25zt0 0zM427 648q-36 -42 -53.5 -83q-17.5 -41 -26.5 -92l-105 0q8 40 18.5 72q10.5 32 25.5 59q15 27 34 50.5q19 23.5 44 46.5z" />
</font>
</defs>
</svg>
