<svg width="660" height="77" viewBox="0 0 660 77" fill="none" xmlns="http://www.w3.org/2000/svg">
<path d="M71.64 75L46.2 2.04H26.76L0.6 75H16.08L22.2 56.04H49.44L55.56 75H71.64ZM36.48 13.32L45.6 44.4H26.04L35.52 13.32H36.48ZM94.6275 63.48V43.08H125.828V31.8H94.6275V13.56H126.908V2.04H79.9875V75H128.108V63.48H94.6275ZM156.148 75V46.2H168.388L182.548 75H198.388L182.788 43.92L184.468 43.08C191.548 39.48 196.108 33.24 196.108 23.4C196.108 8.4 186.628 2.04 170.188 2.04H141.628V75H156.148ZM156.148 34.92V13.56H169.588C174.868 13.56 180.988 15.6 180.988 23.4C180.988 32.04 175.468 34.92 169.588 34.92H156.148ZM204.962 38.16C204.962 61.56 213.002 76.2 236.882 76.2C260.282 76.2 271.442 63.72 271.442 38.88C271.442 15.36 263.042 0.839996 239.402 0.839996C216.002 0.839996 204.962 13.2 204.962 38.16ZM256.202 37.44C256.202 55.08 251.642 64.8 236.642 64.8C223.682 64.8 219.842 53.28 219.842 39.36C219.842 21.72 224.882 12 239.522 12C252.602 12 256.202 23.64 256.202 37.44ZM314.725 45.72C320.845 48.96 322.165 53.28 322.165 57.96C322.165 66.12 315.325 71.28 302.365 71.28C295.165 71.28 289.525 69.72 283.165 66.96L281.005 71.76C286.405 74.52 294.565 76.2 302.725 76.2C316.525 76.2 327.805 70.44 327.805 57.24C327.805 48.48 323.605 44.04 317.845 40.8C310.765 36.96 300.205 33.96 294.445 30.72C288.325 27.48 287.125 23.52 287.125 18.72C287.125 10.44 294.805 5.76 306.325 5.76C314.005 5.76 320.365 7.92 324.085 9.48L326.125 4.8C320.725 2.28 314.965 0.839996 306.325 0.839996C293.485 0.839996 281.365 5.99999 281.365 18.96C281.365 27.6 285.085 31.92 290.725 35.28C297.085 39.12 308.725 42.6 314.725 45.72ZM367.264 76.2C376.864 76.2 385.984 73.68 390.904 71.64L389.344 67.32C384.904 68.88 377.944 71.28 367.264 71.28C349.624 71.28 342.664 59.4 342.664 39.6C342.664 17.88 350.344 5.76 369.184 5.76C377.824 5.76 382.864 8.52 387.064 12.72L390.544 9.35999C386.224 4.2 378.664 0.839996 369.064 0.839996C349.504 0.839996 336.904 11.64 336.904 38.52C336.904 63.84 346.144 75.84 367.264 76.2ZM403.785 75H409.305V2.04H403.785V75ZM431.102 70.08V39.84H466.022V34.92H431.102V6.96H467.222V2.04H425.582V75H468.422V70.08H431.102ZM531.861 2.04V70.2H530.901L492.381 2.04H482.301V75H487.821V6.84H488.781L527.421 75H537.381V2.04H531.861ZM580.428 76.2C590.028 76.2 599.148 73.68 604.068 71.64L602.508 67.32C598.068 68.88 591.108 71.28 580.428 71.28C562.788 71.28 555.828 59.4 555.828 39.6C555.828 17.88 563.508 5.76 582.348 5.76C590.988 5.76 596.028 8.52 600.228 12.72L603.708 9.35999C599.388 4.2 591.828 0.839996 582.228 0.839996C562.668 0.839996 550.068 11.64 550.068 38.52C550.068 63.84 559.308 75.84 580.428 76.2ZM622.469 70.08V39.84H657.389V34.92H622.469V6.96H658.589V2.04H616.949V75H659.789V70.08H622.469Z" fill="black"/>
</svg>
