<?xml version="1.0" encoding="UTF-8" standalone="no"?>
<!-- Generator: Adobe Illustrator 19.2.0, SVG Export Plug-In . SVG Version: 6.00 Build 0)  -->

<svg
   xmlns:dc="http://purl.org/dc/elements/1.1/"
   xmlns:cc="http://creativecommons.org/ns#"
   xmlns:rdf="http://www.w3.org/1999/02/22-rdf-syntax-ns#"
   xmlns:svg="http://www.w3.org/2000/svg"
   xmlns="http://www.w3.org/2000/svg"
   xmlns:sodipodi="http://sodipodi.sourceforge.net/DTD/sodipodi-0.dtd"
   xmlns:inkscape="http://www.inkscape.org/namespaces/inkscape"
   version="1.1"
   id="Layer_1"
   x="0px"
   y="0px"
   viewBox="0 0 336.3 33.200001"
   xml:space="preserve"
   sodipodi:docname="cord-zero-logo.svg"
   width="336.29999"
   height="33.200001"
   inkscape:version="0.92.1 r15371"><metadata
     id="metadata53"><rdf:RDF><cc:Work
         rdf:about=""><dc:format>image/svg+xml</dc:format><dc:type
           rdf:resource="http://purl.org/dc/dcmitype/StillImage" /><dc:title></dc:title></cc:Work></rdf:RDF></metadata><defs
     id="defs51" /><sodipodi:namedview
     pagecolor="#ffffff"
     bordercolor="#666666"
     borderopacity="1"
     objecttolerance="10"
     gridtolerance="10"
     guidetolerance="10"
     inkscape:pageopacity="0"
     inkscape:pageshadow="2"
     inkscape:window-width="1858"
     inkscape:window-height="1057"
     id="namedview49"
     showgrid="false"
     inkscape:zoom="1.0635321"
     inkscape:cx="167.14999"
     inkscape:cy="16.3"
     inkscape:window-x="1358"
     inkscape:window-y="-8"
     inkscape:window-maximized="1"
     inkscape:current-layer="Layer_1" /><style
     type="text/css"
     id="style2">
	.st0{fill:#FFFFFF;}
	.st1{fill:#C00C3F;}
</style><g
     id="g46"
     transform="translate(-11.5,-7.1)"><g
       id="g8"><polygon
         class="st0"
         points="11.5,39.8 32.5,39.8 32.5,34.1 18.3,34.1 18.3,10.3 11.5,10.3 "
         id="polygon4"
         style="fill:#ffffff" /><path
         class="st0"
         d="M 47.4,28.6 H 53 v 5.2 c -1,0.4 -3,0.8 -4.9,0.8 -6.1,0 -8.2,-3.1 -8.2,-9.4 0,-6 1.9,-9.6 8.1,-9.6 3.4,0 5.4,1.1 7,3.1 l 4.2,-3.9 C 56.6,11.1 52.1,10 47.9,10 c -9.5,0 -14.6,5.2 -14.6,15.1 0,9.9 4.5,15.2 14.5,15.2 4.6,0 9,-1.2 11.5,-2.9 V 23.1 H 47.4 Z"
         id="path6"
         inkscape:connector-curvature="0"
         style="fill:#ffffff" /></g><g
       id="g36"><g
         id="g18"><path
           class="st0"
           d="m 116.4,39.8 c -6.2,0 -10.8,-5 -10.8,-11.5 0,-6.5 4.4,-11.1 10.8,-11.1 h 3.8 c 6.4,0 10.9,4.6 10.9,11.1 0,6.6 -4.7,11.5 -10.9,11.5 z M 117,21.5 c -3.8,0 -6.6,2.9 -6.6,7 0,4.1 2.8,7.1 6.6,7.1 h 2.6 c 3.9,0 6.7,-3 6.7,-7.1 0,-4.1 -2.8,-7 -6.7,-7 z"
           id="path10"
           inkscape:connector-curvature="0"
           style="fill:#ffffff" /><path
           class="st0"
           d="m 169.1,7.1 v 10.2 h -7 c -6.4,0 -10.8,4.6 -10.8,11.1 0,6.6 4.7,11.5 10.8,11.5 h 11.7 V 27.4 17.2 7.1 Z m 0,28.4 h -6.4 c -3.8,0 -6.6,-3 -6.6,-7.1 0,-4 2.8,-7 6.6,-7 h 6.4 v 5.9 z"
           id="path12"
           inkscape:connector-curvature="0"
           style="fill:#ffffff" /><path
           class="st0"
           d="m 91,39.8 c -8,0 -14.1,-6.5 -14.1,-15 0,-8.5 5.8,-14.4 14.1,-14.4 h 13.5 l -3.2,4.7 H 92 c -5.4,0 -9.9,4.5 -9.9,10 0,5.5 4.4,10 9.9,10 h 0.5 v 0 h 12.1 l -3.2,4.7 z"
           id="path14"
           inkscape:connector-curvature="0"
           style="fill:#ffffff" /><path
           class="st0"
           d="M 134.5,39.8 V 25.4 c 0,-4.4 3.5,-8 7.8,-8.1 v 0 h 0.2 9.9 l -2.9,4.3 h -6.6 c -2,0 -3.6,1.7 -3.7,3.7 v 14.6 h -4.7 z"
           id="path16"
           inkscape:connector-curvature="0"
           style="fill:#ffffff" /></g><g
         id="g28"><path
           class="st1"
           d="m 212.3,30.9 -0.1,-0.2 h 19.5 c 0.3,-1.3 0.2,-2.5 0.2,-2.5 0,-6.5 -4.5,-11.1 -10.9,-11.1 h -3 c -6.4,0 -10.8,4.6 -10.8,11.1 0,6.6 4.6,11.5 10.8,11.5 h 9.4 l 2.9,-4.2 h -11.6 c -3,0.2 -5.5,-1.7 -6.4,-4.6 z m 6.3,-9.5 h 1.8 c 3.3,0 5.9,2.1 6.6,5.3 h -0.1 c 0,0 0,0 0,0 h -14.7 c 0,0 0,0 0,0 h -0.1 c 0.7,-3.2 3.3,-5.3 6.5,-5.3 z"
           id="path20"
           inkscape:connector-curvature="0"
           style="fill:#c00c3f" /><path
           class="st1"
           d="m 263.4,39.8 c -6.2,0 -10.8,-5 -10.8,-11.5 0,-6.5 4.4,-11.1 10.8,-11.1 h 3.8 c 6.4,0 10.9,4.6 10.9,11.1 0,6.6 -4.7,11.5 -10.9,11.5 z m 0.7,-18.3 c -3.8,0 -6.6,2.9 -6.6,7 0,4.1 2.8,7.1 6.6,7.1 h 2.6 c 3.9,0 6.7,-3 6.7,-7.1 0,-4.1 -2.7,-7 -6.7,-7 z"
           id="path22"
           inkscape:connector-curvature="0"
           style="fill:#c00c3f" /><polygon
           class="st1"
           points="179.9,14.9 183,10.3 205.7,10.3 188.2,35.2 206.5,35.2 203.3,39.8 178.9,39.8 196.5,14.9 "
           id="polygon24"
           style="fill:#c00c3f" /><path
           class="st1"
           d="M 235.6,39.8 V 25.4 c 0,-4.4 3.5,-8 7.8,-8.1 v 0 h 0.2 9.9 l -3,4.3 H 244 c -2,0 -3.7,1.7 -3.7,3.7 v 14.6 h -4.7 z"
           id="path26"
           inkscape:connector-curvature="0"
           style="fill:#c00c3f" /></g><g
         id="g34"><path
           class="st0"
           d="m 283.7,10.3 v 1.2 h -2.2 v 6.2 H 280 v -6.2 h -2.2 v -1.2 z"
           id="path30"
           inkscape:connector-curvature="0"
           style="fill:#ffffff" /><path
           class="st0"
           d="m 292.5,10.3 v 7.4 H 291 v -6.2 h -0.1 l -1.4,6.2 h -2 l -1.4,-6.2 H 286 v 6.2 h -1.5 v -7.4 h 2.6 l 1.4,6.2 h 0.1 l 1.3,-6.2 z"
           id="path32"
           inkscape:connector-curvature="0"
           style="fill:#ffffff" /></g></g><g
       id="g44"><g
         id="g42"><path
           class="st0"
           d="m 320.4,39.8 -2.8,-8.1 h -12 l -2.8,8.1 h -5 l 10.7,-29.5 h 6.5 l 10.5,29.5 z M 311.5,14 306.9,27.9 h 9.4 L 311.8,14 Z"
           id="path38"
           inkscape:connector-curvature="0"
           style="fill:#ffffff" /><path
           class="st0"
           d="m 347.8,23.7 c 0,2.6 -0.2,4.9 -0.8,7 -0.5,2 -1.3,3.8 -2.4,5.2 -1.1,1.4 -2.4,2.5 -4.1,3.3 -1.7,0.8 -3.7,1.1 -6,1.1 -1.3,0 -2.5,-0.1 -3.5,-0.3 -1,-0.2 -2,-0.5 -2.8,-0.8 l 1.1,-3.5 c 0.6,0.3 1.4,0.5 2.3,0.7 0.9,0.2 1.7,0.2 2.7,0.2 1.4,0 2.5,-0.2 3.5,-0.6 1,-0.4 1.8,-0.9 2.5,-1.6 0.7,-0.7 1.2,-1.5 1.6,-2.5 0.4,-1 0.7,-2 0.9,-3.2 l 0.2,-1.3 c -0.3,0.2 -0.7,0.4 -1.1,0.6 -0.4,0.2 -0.8,0.4 -1.2,0.5 -1.3,0.4 -2.6,0.6 -4,0.6 -3.1,0 -5.5,-0.8 -7.1,-2.3 -1.6,-1.5 -2.4,-3.8 -2.4,-6.9 0,-1.5 0.2,-2.9 0.7,-4.2 0.4,-1.2 1.1,-2.3 2,-3.2 0.9,-0.9 1.9,-1.6 3.2,-2.1 1.3,-0.5 2.7,-0.7 4.4,-0.7 1.7,0 3.2,0.3 4.5,0.8 1.3,0.5 2.4,1.3 3.3,2.4 0.9,1.1 1.6,2.5 2,4.3 0.3,1.9 0.5,4 0.5,6.5 z m -5,-3.9 c -0.1,-0.9 -0.2,-1.8 -0.5,-2.6 -0.3,-0.8 -0.6,-1.5 -1.1,-2 -0.4,-0.6 -1,-1 -1.7,-1.3 -0.7,-0.3 -1.5,-0.5 -2.4,-0.5 -1.7,0 -3.1,0.5 -4.1,1.6 -1,1 -1.5,2.6 -1.5,4.8 0,1.8 0.5,3.2 1.5,4.2 1,1 2.4,1.5 4.1,1.5 1.3,0 2.6,-0.2 3.7,-0.7 0.4,-0.1 0.7,-0.3 1.1,-0.5 0.4,-0.2 0.7,-0.4 1,-0.6 0.2,-1.4 0.1,-2.6 -0.1,-3.9 z"
           id="path40"
           inkscape:connector-curvature="0"
           style="fill:#ffffff" /></g></g></g></svg>