<svg width="46" height="46" viewBox="0 0 46 46" fill="none" xmlns="http://www.w3.org/2000/svg">
<path d="M8 0H12V8H8V0Z" fill="#444444"/>
<path d="M32 0H36V8H32V0Z" fill="#444444"/>
<path d="M18.48 41.1429H2.8V18.2857H39.2V20C40.32 20.5714 41.16 21.1429 42 22V4H36.4V12.5714H28V4H14V12.5714H5.6V4H0V44H20.44C19.6 43.1429 19.04 42.2857 18.48 41.1429Z" fill="#444444"/>
<path d="M40 34H32V26H34.6667V31.3333H40V34Z" fill="#444444"/>
<path fill-rule="evenodd" clip-rule="evenodd" d="M20 33C20 25.7773 25.7773 20 33 20C40.2227 20 46 25.7773 46 33C46 40.2227 40.2227 46 33 46C25.7773 46 20 40.2227 20 33ZM43.1133 33C43.1133 27.5107 38.4922 22.8887 33 22.8887C27.5117 22.8887 22.8906 27.5107 22.8906 33C22.8906 38.4883 27.5117 43.1113 33 43.1113C38.4922 43.1113 43.1133 38.4883 43.1133 33Z" fill="#444444"/>
</svg>
